<?xml version="1.0" encoding="utf-8"?>
<!-- Generator: Adobe Illustrator 25.1.0, SVG Export Plug-In . SVG Version: 6.00 Build 0)  -->
<svg version="1.1" id="Layer_1" xmlns="http://www.w3.org/2000/svg" xmlns:xlink="http://www.w3.org/1999/xlink" x="0px" y="0px"
	 viewBox="0 0 95.39 28.55" style="enable-background:new 0 0 95.39 28.55;" xml:space="preserve">
<style type="text/css">
	.st0{fill:#ECECEC;}
	.st1{clip-path:url(#SVGID_1_);fill:#ECECEC;}
</style>
<g>
	<g>
		<g>
			<g>
				<path class="st0" d="M56.32,25.33v0.61h0.66v0.35h-0.66v1.38c0,0.32,0.09,0.49,0.35,0.49c0.13,0,0.2-0.01,0.27-0.03l0.02,0.35
					c-0.09,0.03-0.23,0.06-0.41,0.06c-0.22,0-0.39-0.07-0.5-0.19c-0.13-0.14-0.18-0.37-0.18-0.67v-1.39h-0.39v-0.35h0.39v-0.48
					L56.32,25.33z"/>
				<path class="st0" d="M57.51,26.74c0-0.3-0.01-0.56-0.02-0.8h0.41l0.02,0.5h0.02c0.11-0.34,0.4-0.56,0.71-0.56
					c0.05,0,0.08,0.01,0.12,0.01v0.44c-0.05-0.01-0.1-0.01-0.16-0.01c-0.33,0-0.56,0.25-0.62,0.59c-0.01,0.07-0.02,0.15-0.02,0.22
					v1.36h-0.46V26.74z"/>
				<path class="st0" d="M61.37,27.79c0,0.27,0,0.5,0.02,0.7h-0.41l-0.03-0.42h-0.01c-0.12,0.21-0.39,0.47-0.85,0.47
					c-0.4,0-0.88-0.23-0.88-1.12v-1.49h0.46v1.41c0,0.48,0.15,0.82,0.57,0.82c0.31,0,0.53-0.22,0.61-0.43
					c0.03-0.06,0.04-0.15,0.04-0.24v-1.56h0.46V27.79z"/>
				<path class="st0" d="M62.07,28.02c0.14,0.08,0.38,0.18,0.62,0.18c0.33,0,0.49-0.16,0.49-0.38c0-0.22-0.13-0.34-0.47-0.46
					c-0.46-0.17-0.68-0.42-0.68-0.72c0-0.41,0.34-0.75,0.88-0.75c0.26,0,0.49,0.07,0.62,0.16l-0.11,0.34
					c-0.1-0.06-0.29-0.15-0.52-0.15c-0.27,0-0.42,0.16-0.42,0.35c0,0.21,0.15,0.31,0.48,0.44c0.44,0.16,0.67,0.39,0.67,0.76
					c0,0.45-0.35,0.77-0.95,0.77c-0.28,0-0.54-0.07-0.72-0.18L62.07,28.02z"/>
				<path class="st0" d="M64.78,25.33v0.61h0.66v0.35h-0.66v1.38c0,0.32,0.09,0.49,0.35,0.49c0.12,0,0.2-0.01,0.27-0.03l0.02,0.35
					c-0.09,0.03-0.23,0.06-0.41,0.06c-0.22,0-0.39-0.07-0.5-0.19c-0.13-0.14-0.18-0.37-0.18-0.67v-1.39h-0.39v-0.35h0.39v-0.48
					L64.78,25.33z"/>
				<path class="st0" d="M66.2,27.3c0.01,0.63,0.4,0.89,0.87,0.89c0.34,0,0.54-0.06,0.71-0.14l0.09,0.33
					c-0.16,0.08-0.45,0.16-0.86,0.16c-0.78,0-1.25-0.52-1.25-1.29c0-0.77,0.45-1.37,1.19-1.37c0.84,0,1.06,0.73,1.06,1.19
					c0,0.1,0,0.16-0.02,0.22H66.2z M67.56,26.97c0.01-0.29-0.12-0.75-0.64-0.75c-0.47,0-0.67,0.43-0.71,0.75H67.56z"/>
				<path class="st0" d="M70.78,24.75v3.08c0,0.23,0.01,0.49,0.02,0.66h-0.41l-0.02-0.44h-0.02c-0.14,0.29-0.44,0.5-0.86,0.5
					c-0.62,0-1.1-0.52-1.1-1.3c0-0.85,0.53-1.37,1.14-1.37c0.39,0,0.65,0.18,0.77,0.39h0.01v-1.52H70.78z M70.32,26.98
					c0-0.06-0.01-0.14-0.02-0.2c-0.07-0.29-0.32-0.53-0.67-0.53c-0.48,0-0.76,0.42-0.76,0.98c0,0.52,0.26,0.95,0.75,0.95
					c0.31,0,0.6-0.21,0.68-0.56c0.02-0.06,0.02-0.12,0.02-0.2V26.98z"/>
				<path class="st0" d="M74.49,28.4c-0.12,0.06-0.39,0.15-0.73,0.15c-0.77,0-1.27-0.52-1.27-1.3c0-0.79,0.54-1.36,1.37-1.36
					c0.28,0,0.52,0.07,0.64,0.14l-0.11,0.36c-0.11-0.06-0.28-0.12-0.54-0.12c-0.58,0-0.9,0.44-0.9,0.96c0,0.59,0.38,0.96,0.88,0.96
					c0.27,0,0.44-0.07,0.57-0.13L74.49,28.4z"/>
				<path class="st0" d="M77.31,27.2c0,0.94-0.66,1.36-1.27,1.36c-0.69,0-1.22-0.51-1.22-1.31c0-0.85,0.56-1.35,1.27-1.35
					C76.81,25.89,77.31,26.42,77.31,27.2z M75.29,27.22c0,0.56,0.32,0.98,0.77,0.98c0.44,0,0.77-0.41,0.77-0.99
					c0-0.43-0.21-0.97-0.76-0.97C75.52,26.24,75.29,26.74,75.29,27.22z"/>
				<path class="st0" d="M77.89,26.63c0-0.27,0-0.48-0.02-0.69h0.41l0.03,0.42h0.01c0.13-0.24,0.42-0.47,0.85-0.47
					c0.35,0,0.9,0.21,0.9,1.09v1.52H79.6v-1.47c0-0.41-0.15-0.76-0.59-0.76c-0.3,0-0.54,0.22-0.62,0.47
					c-0.02,0.06-0.03,0.14-0.03,0.22v1.54h-0.47V26.63z"/>
				<path class="st0" d="M80.82,26.63c0-0.27-0.01-0.48-0.02-0.69h0.41l0.02,0.42h0.01c0.12-0.24,0.42-0.47,0.84-0.47
					c0.35,0,0.9,0.21,0.9,1.09v1.52h-0.46v-1.47c0-0.41-0.15-0.76-0.59-0.76c-0.3,0-0.54,0.22-0.62,0.47
					c-0.02,0.06-0.03,0.14-0.03,0.22v1.54h-0.46V26.63z"/>
				<path class="st0" d="M84,27.3c0.01,0.63,0.4,0.89,0.88,0.89c0.33,0,0.54-0.06,0.71-0.14l0.08,0.33
					c-0.16,0.08-0.45,0.16-0.85,0.16c-0.79,0-1.26-0.52-1.26-1.29c0-0.77,0.45-1.37,1.2-1.37c0.84,0,1.06,0.73,1.06,1.19
					c0,0.1-0.01,0.16-0.02,0.22H84z M85.36,26.97c0.01-0.29-0.12-0.75-0.64-0.75c-0.47,0-0.67,0.43-0.71,0.75H85.36z"/>
				<path class="st0" d="M88.2,28.4c-0.12,0.06-0.39,0.15-0.73,0.15c-0.77,0-1.27-0.52-1.27-1.3c0-0.79,0.54-1.36,1.37-1.36
					c0.28,0,0.52,0.07,0.64,0.14l-0.11,0.36c-0.11-0.06-0.28-0.12-0.54-0.12c-0.59,0-0.9,0.44-0.9,0.96c0,0.59,0.38,0.96,0.88,0.96
					c0.27,0,0.44-0.07,0.57-0.13L88.2,28.4z"/>
				<path class="st0" d="M89.37,25.33v0.61h0.66v0.35h-0.66v1.38c0,0.32,0.09,0.49,0.35,0.49c0.13,0,0.2-0.01,0.27-0.03l0.02,0.35
					c-0.09,0.03-0.23,0.06-0.41,0.06c-0.22,0-0.39-0.07-0.5-0.19c-0.13-0.14-0.18-0.37-0.18-0.67v-1.39h-0.39v-0.35h0.39v-0.48
					L89.37,25.33z"/>
				<path class="st0" d="M90.78,27.3c0.01,0.63,0.4,0.89,0.88,0.89c0.33,0,0.54-0.06,0.7-0.14l0.09,0.33
					c-0.16,0.08-0.45,0.16-0.85,0.16c-0.79,0-1.26-0.52-1.26-1.29c0-0.77,0.45-1.37,1.2-1.37c0.84,0,1.06,0.73,1.06,1.19
					c0,0.1-0.01,0.16-0.02,0.22H90.78z M92.14,26.97c0.01-0.29-0.12-0.75-0.64-0.75c-0.47,0-0.68,0.43-0.71,0.75H92.14z"/>
				<path class="st0" d="M95.36,24.75v3.08c0,0.23,0.01,0.49,0.02,0.66h-0.41l-0.02-0.44h-0.01c-0.14,0.29-0.44,0.5-0.86,0.5
					c-0.62,0-1.1-0.52-1.1-1.3c-0.01-0.85,0.53-1.37,1.14-1.37c0.4,0,0.65,0.18,0.77,0.39h0.01v-1.52H95.36z M94.91,26.98
					c0-0.06,0-0.14-0.02-0.2c-0.07-0.29-0.32-0.53-0.67-0.53c-0.48,0-0.77,0.42-0.77,0.98c0,0.52,0.26,0.95,0.76,0.95
					c0.31,0,0.6-0.21,0.68-0.56c0.02-0.06,0.02-0.12,0.02-0.2V26.98z"/>
			</g>
		</g>
		<g>
			<g>
				<defs>
					<path id="SVGID_3_" d="M4.4,9.92c-0.16,0.4-0.67,1.68-0.67,1.68c-1.07,2.71-1.71,4.47-1.92,5.24c-0.12,0.44-0.17,0.8-0.17,1.06
						c0,0.14,0.02,0.23,0.04,0.28c2.1,3.56,5.97,5.95,10.4,5.95c2.62,0,5.05-0.84,7.02-2.26c-0.05,0-0.1,0-0.16,0
						c-0.55,0.16-1.78,0.51-4.2,0.48c-2-0.02-3.8-0.78-5.33-2.32c-1.7-1.71-3.04-3.99-3.97-6.79c-0.34-1.02-0.62-2.14-0.82-3.33H4.4
						z M16.18,10.48c-1.37,1.07-2.44,2.54-3.17,4.38c-0.7,1.79-0.76,3.18-0.16,4.15c0.59,0.95,1.79,1.44,3.56,1.44l0.84-0.04
						c0.2-0.02,0.5-0.06,0.74-0.11c0.18-0.45,0.95-2.34,0.95-2.34c0.38-0.96,0.63-1.7,0.75-2.22c0.07-0.27,0.1-0.5,0.1-0.67
						c0-0.14-0.02-0.22-0.04-0.25l-0.22-0.47h4.24l-0.64,0.58c-0.25,0.22-0.51,0.58-0.77,1.07c-0.28,0.52-0.67,1.43-1.18,2.71
						l-0.8,2.09c2.3-2.2,3.74-5.3,3.74-8.73c0-0.35-0.02-0.7-0.05-1.05l-0.26-0.53c-0.25-0.52-0.64-0.92-1.15-1.18
						c-0.53-0.27-1.2-0.41-2-0.41C19.06,8.89,17.55,9.43,16.18,10.48 M0,12.07c0,0.27,0.01,0.54,0.03,0.81
						c0.33-0.82,0.7-1.74,1.12-2.79L1.6,8.94c1-2.53,1.72-4.4,2.14-5.6C1.44,5.54,0,8.63,0,12.07 M14.41,3.55
						c-1.89,1.35-4.17,3.06-6.78,5.08c0.4,2.79,0.93,5.05,1.57,6.72l0,0c0.12,0.33,0.26,0.64,0.39,0.94
						c0.11-0.42,0.26-0.87,0.44-1.33c0.94-2.36,2.48-4.25,4.59-5.63h0c2.11-1.37,4.55-2.07,7.25-2.07c0.4,0,0.83,0.01,1.28,0.04
						c-1.11-2.57-3.07-4.67-5.54-5.95C16.85,1.84,15.77,2.57,14.41,3.55 M9.26,0.33L8.64,0.82c-0.33,0.26-0.69,0.76-1.08,1.5
						C7.16,3.09,6.4,4.85,5.34,7.54c0,0-0.1,0.25-0.2,0.5c0.21-0.08,0.41-0.17,0.63-0.29C6.33,7.43,7.09,6.91,8.04,6.2
						c2.33-1.76,3.93-3.02,4.76-3.75c0.98-0.87,1.3-1.32,1.39-1.55l0.05-0.12c0.02-0.06,0.03-0.11,0.05-0.15
						c0-0.02,0.02-0.3,0.03-0.41C13.58,0.08,12.83,0,12.07,0C11.1,0,10.16,0.12,9.26,0.33"/>
				</defs>
				<use xlink:href="#SVGID_3_"  style="overflow:visible;fill:#ECECEC;"/>
				<clipPath id="SVGID_1_">
					<use xlink:href="#SVGID_3_"  style="overflow:visible;"/>
				</clipPath>
				<rect class="st1" width="24.13" height="24.13"/>
			</g>
			<g>
				<path class="st0" d="M44.89,13.61v8.32h-3.26v-8.3c0-0.33-0.06-0.63-0.19-0.92c-0.13-0.29-0.3-0.54-0.5-0.75
					c-0.2-0.21-0.45-0.38-0.74-0.51c-0.29-0.13-0.59-0.19-0.91-0.19c-0.32,0-0.62,0.07-0.91,0.19c-0.29,0.13-0.53,0.3-0.74,0.51
					c-0.21,0.21-0.37,0.46-0.5,0.75c-0.13,0.29-0.19,0.6-0.19,0.92v8.3h-3.26v-8.3c0-0.33-0.06-0.63-0.19-0.92
					c-0.13-0.29-0.29-0.54-0.5-0.75c-0.21-0.21-0.46-0.38-0.74-0.51c-0.29-0.13-0.59-0.19-0.91-0.19c-0.32,0-0.62,0.07-0.91,0.19
					c-0.29,0.13-0.53,0.3-0.74,0.51c-0.21,0.21-0.37,0.46-0.5,0.75c-0.13,0.29-0.19,0.6-0.19,0.92v8.3h-3.26V10.07V7.04
					c0,0,0.87,0,0.95,0c1.77,0,2.31,1.42,2.31,1.42c0.73-0.35,1.51-0.53,2.34-0.53c0.79,0,1.52,0.15,2.2,0.45
					c0.68,0.3,1.27,0.71,1.78,1.22c0.51-0.51,1.1-0.92,1.77-1.22c0.67-0.3,1.4-0.45,2.19-0.45c0.75,0,1.45,0.14,2.12,0.43
					c0.67,0.29,1.25,0.67,1.75,1.16c0.5,0.49,0.9,1.06,1.21,1.73c0.31,0.67,0.47,1.38,0.5,2.14L44.89,13.61z"/>
				<g>
					<g>
						<path class="st0" d="M75.25,3.03v11.72c0,1-0.19,1.95-0.57,2.83c-0.39,0.88-0.9,1.65-1.56,2.31
							c-0.66,0.65-1.43,1.17-2.32,1.55c-0.89,0.38-1.84,0.58-2.84,0.58c-1,0-1.95-0.19-2.83-0.58c-0.88-0.38-1.65-0.9-2.31-1.55
							c-0.65-0.66-1.17-1.42-1.56-2.31c-0.38-0.88-0.58-1.83-0.58-2.83c0-1,0.19-1.95,0.58-2.84c0.38-0.89,0.9-1.67,1.56-2.32
							c0.65-0.65,1.42-1.17,2.31-1.56c0.88-0.38,1.83-0.58,2.83-0.58c0.72,0,1.41,0.1,2.06,0.29c0.65,0.19,1.26,0.47,1.83,0.84V3.03
							H75.25z M67.96,18.62c0.54,0,1.05-0.1,1.51-0.3c0.47-0.2,0.88-0.48,1.23-0.83c0.36-0.35,0.63-0.76,0.84-1.23
							c0.2-0.47,0.3-0.97,0.3-1.5c0-0.54-0.1-1.05-0.3-1.51c-0.2-0.47-0.48-0.88-0.84-1.23c-0.36-0.36-0.77-0.63-1.23-0.84
							c-0.47-0.2-0.97-0.3-1.51-0.3c-0.53,0-1.03,0.1-1.5,0.3c-0.47,0.2-0.88,0.48-1.23,0.84c-0.35,0.36-0.62,0.77-0.83,1.23
							c-0.2,0.47-0.3,0.97-0.3,1.51c0,0.53,0.1,1.03,0.3,1.5c0.2,0.47,0.48,0.88,0.83,1.23c0.35,0.35,0.76,0.62,1.23,0.83
							C66.93,18.51,67.43,18.62,67.96,18.62z"/>
						<path class="st0" d="M76.44,22.04V8.53h3.4v13.51H76.44z"/>
						<path class="st0" d="M95.29,14.75v7.27c0,0-0.69,0-0.74,0c-1.73,0-2.67-1.13-2.67-1.13c-0.57,0.36-1.18,0.64-1.84,0.84
							c-0.65,0.2-1.34,0.29-2.05,0.29c-1,0-1.95-0.19-2.84-0.58c-0.89-0.38-1.67-0.9-2.33-1.55c-0.66-0.66-1.18-1.43-1.57-2.32
							c-0.38-0.89-0.57-1.84-0.57-2.84c0-1,0.19-1.95,0.57-2.84c0.38-0.89,0.9-1.67,1.57-2.33c0.66-0.66,1.44-1.18,2.33-1.57
							c0.89-0.38,1.84-0.57,2.84-0.57s1.95,0.19,2.84,0.57c0.89,0.38,1.66,0.91,2.32,1.57c0.65,0.66,1.17,1.44,1.56,2.33
							c0.38,0.89,0.57,1.84,0.57,2.84V14.75z M88,18.62c0.53,0,1.03-0.1,1.5-0.3c0.47-0.2,0.89-0.48,1.24-0.83
							c0.36-0.36,0.63-0.77,0.84-1.23c0.2-0.47,0.3-0.97,0.3-1.51s-0.1-1.05-0.3-1.53c-0.2-0.47-0.48-0.88-0.84-1.24
							c-0.36-0.36-0.77-0.63-1.23-0.84c-0.46-0.2-0.97-0.31-1.51-0.31s-1.05,0.1-1.51,0.31c-0.47,0.2-0.88,0.48-1.23,0.84
							c-0.36,0.36-0.63,0.77-0.84,1.24c-0.2,0.47-0.3,0.98-0.3,1.53c0,0.53,0.1,1.03,0.3,1.5c0.2,0.47,0.48,0.89,0.84,1.24
							c0.36,0.36,0.77,0.63,1.23,0.83C86.95,18.51,87.45,18.62,88,18.62z"/>
						<path class="st0" d="M60.03,13.35L60,13.22c-0.16-0.83-0.47-1.61-0.91-2.33c-0.44-0.72-0.97-1.34-1.6-1.86
							c-0.63-0.52-1.34-0.93-2.13-1.22c-0.79-0.29-1.64-0.44-2.53-0.44c-1.02,0-1.97,0.19-2.85,0.57c-0.89,0.38-1.66,0.91-2.32,1.57
							c-0.66,0.66-1.18,1.43-1.57,2.32c-0.38,0.88-0.57,1.83-0.57,2.85c0,0.01,0,0.02,0,0.02c0,0.01,0,0.02,0,0.03
							c0,1.02,0.19,1.97,0.57,2.85c0.39,0.88,0.91,1.66,1.57,2.32c0.66,0.66,1.43,1.18,2.32,1.57c0.88,0.39,1.83,0.58,2.85,0.58
							c0.89,0,1.73-0.15,2.53-0.44c0.79-0.29,1.5-0.7,2.13-1.22c0.63-0.52,1.16-1.14,1.6-1.86c0.22-0.36,0.49-0.94,0.64-1.33
							c-1.6,0.01-2.53-0.01-3.86-0.01c-0.24,0.29-0.51,0.54-0.84,0.77c-0.64,0.46-1.38,0.69-2.2,0.69c-0.55,0-1.06-0.1-1.53-0.3
							c-0.47-0.2-0.89-0.48-1.24-0.84v0c0,0-0.43-0.41-0.78-1.16c-0.04-0.08-0.13-0.29-0.15-0.37h10.9
							C60.04,15.95,60.28,14.58,60.03,13.35z M49.28,13.1c0.2-0.43,0.79-1.18,0.79-1.18l0,0c0.36-0.36,0.77-0.63,1.24-0.84
							c0.47-0.2,0.98-0.3,1.53-0.3c0.82,0,1.56,0.23,2.2,0.69c0.61,0.43,1.07,0.98,1.36,1.63C53.83,13.1,50.64,13.1,49.28,13.1z"/>
					</g>
					<path class="st0" d="M80.11,4.96c0-1.02-0.83-1.85-1.85-1.85c-1.02,0-1.85,0.83-1.85,1.85c0,1.02,0.83,1.85,1.85,1.85
						C79.28,6.81,80.11,5.98,80.11,4.96z"/>
				</g>
			</g>
		</g>
	</g>
</g>
</svg>
