<svg width="138" height="35" viewBox="0 0 138 35" fill="none" xmlns="http://www.w3.org/2000/svg">
<path fill-rule="evenodd" clip-rule="evenodd" d="M31.8584 0C31.9773 0.0502787 32.1464 0.0548495 32.2561 0.109699C31.8539 5.2107 28.7 7.77035 22.9225 7.36812V29.9981C27.0637 29.0245 29.6645 26.3415 31.607 23.1419C31.7762 23.2013 31.9316 23.2699 32.0961 23.3385C30.83 28.6132 27.9824 32.64 23.0642 34.2672C20.1808 35.1008 17.1385 35.2247 14.1969 34.6283C11.709 34.122 9.37938 33.0246 7.40469 31.4288C4.66221 29.2119 2.70591 26.0855 2.37681 21.4736C2.2742 19.9433 2.39741 18.4063 2.74248 16.9119C3.32767 14.4654 4.46601 12.1856 6.07001 10.2477C7.57917 8.43918 9.32044 6.83776 11.2487 5.48495C8.86277 4.99588 6.22085 5.17414 4.42453 6.09744C2.95942 6.90793 1.72344 8.07629 0.831885 9.49354C0.713044 9.66266 0.5165 10.0237 0.397659 10.0512C0.278818 10.0786 0.123411 10.0512 0 10.0512C0.493646 6.6505 1.89231 4.1777 4.17313 2.52308C6.45396 0.868451 9.63523 0.0274248 13.5433 0.28796C17.9998 0.580491 21.7204 1.92887 25.8844 2.54593C26.7681 2.7063 27.6706 2.73556 28.5629 2.63278C30.2632 2.37681 31.0814 1.30725 31.8264 0.0548495C31.8401 0.0365663 31.8356 0 31.8584 0ZM7.56466 15.9292C7.13958 21.1216 8.95418 24.6823 11.6144 26.9677C12.1347 26.5267 12.5528 25.9777 12.8394 25.3588C13.1341 24.5692 13.2648 23.7278 13.2233 22.886V5.77748C13.0159 5.75988 12.8098 5.72935 12.6062 5.68607C10.0923 8.14972 7.94861 11.2899 7.56466 15.9292ZM18.4432 6.6825V13.3604C18.4432 15.6138 18.5757 17.8809 18.2238 19.851C17.5427 23.663 15.1156 25.6787 12.7388 27.7767C14.7225 29.5273 17.817 30.5192 21.6747 30.2129V7.31327C20.596 7.09844 19.5401 6.85619 18.4432 6.66422C18.4523 6.61394 18.434 6.64593 18.4432 6.6825Z" fill="#F1F6FF"/>
<path fill-rule="evenodd" clip-rule="evenodd" d="M36.9183 1.49917C37.3185 1.46089 37.7199 1.55936 38.0569 1.77851C38.3939 1.99766 38.6467 2.32455 38.7741 2.70586C39.3409 4.19137 38.9706 6.57732 37.7319 7.1121C37.2991 7.28136 36.8236 7.3079 36.3746 7.18785C35.9257 7.06781 35.5268 6.80745 35.2363 6.44477C34.8798 5.85821 34.7063 5.17868 34.7381 4.49304C34.7381 2.82927 35.1951 1.50374 36.9183 1.49917Z" fill="#F1F6FF"/>
<path fill-rule="evenodd" clip-rule="evenodd" d="M44.7931 10.3246C45.2045 9.63445 45.5519 8.87113 46.2603 8.4689C46.587 8.31671 46.9485 8.25508 47.3072 8.29046C47.6658 8.32584 48.0083 8.45693 48.2989 8.67001C48.7883 9.08139 49.1683 9.60742 49.4051 10.2012C50.4381 12.5278 50.6575 16.4861 49.9627 19.4342C49.629 20.8329 48.9525 22.1539 47.9378 22.6658C47.563 22.8446 47.1439 22.9092 46.7326 22.8514C46.3213 22.7937 45.9362 22.6163 45.625 22.3413C45.1144 21.7421 44.7721 21.0181 44.6331 20.2433C44.592 21.0843 44.6331 21.9984 44.6331 22.8623C43.1613 22.6393 41.678 22.5004 40.1903 22.4464V21.7791H40.9994C41.0405 15.5216 40.9994 9.19108 40.9994 2.90624H40.1675V2.25262C41.6693 2.2024 43.1659 2.04969 44.6469 1.79554C44.8023 1.76812 44.7794 1.79554 44.7886 1.9738C44.8708 3.31304 44.7886 4.69342 44.7886 6.01895L44.7931 10.3246ZM44.7931 12.5323C44.752 13.4465 44.7703 14.5252 44.7703 15.6908C44.7703 16.7283 44.7703 17.8116 44.7931 18.8355C44.8014 19.3148 44.855 19.7923 44.9531 20.2615C45.0491 20.6638 45.2593 21.1757 45.657 21.1483C46.0547 21.1209 46.1141 20.5404 46.1644 20.1199C46.2895 18.5996 46.3201 17.0731 46.2558 15.5491V12.4775C46.2692 11.9903 46.2447 11.5028 46.1826 11.0194C46.1049 10.48 45.9861 9.99097 45.5519 10.0732C44.8663 10.2104 44.8434 11.7187 44.7931 12.5323Z" fill="#F1F6FF"/>
<path fill-rule="evenodd" clip-rule="evenodd" d="M119.206 7.99869C119.252 9.68989 119.289 11.4771 119.298 13.1454H118.95C118.539 11.7422 118.036 10.211 117.003 9.30137C116.491 8.84429 115.321 8.34607 114.96 9.22824C114.815 9.59438 114.781 9.99502 114.863 10.3803C114.944 10.7655 115.137 11.1183 115.417 11.3948C115.63 11.5602 115.853 11.7128 116.084 11.8519C116.765 12.2747 117.406 12.7581 118 13.2962C118.786 14.1051 119.315 15.1298 119.517 16.2398C119.748 17.5924 119.729 18.9757 119.462 20.3216C119.202 21.478 118.644 22.5704 117.529 22.936C117.211 23.0554 116.876 23.1248 116.537 23.1417C116.113 23.1092 115.706 22.9588 115.362 22.7075C115.019 22.5018 114.699 22.3236 114.37 22.095C114.041 22.3236 113.712 22.6069 113.36 22.8858C113.265 22.9936 113.143 23.0742 113.006 23.1192C112.87 23.1642 112.724 23.172 112.583 23.1417C112.583 21.3134 112.483 19.412 112.492 17.5928H112.743C112.944 18.1413 113.091 18.6898 113.305 19.2017C113.685 20.183 114.299 21.0569 115.093 21.7476C115.296 21.9146 115.52 22.0544 115.76 22.1636C116.029 22.3003 116.326 22.3753 116.628 22.383C116.882 22.342 117.113 22.2126 117.28 22.0176C117.447 21.8227 117.54 21.5749 117.543 21.318C117.657 20.0336 116.916 19.5719 116.171 19.0326C115.641 18.6624 115.106 18.2556 114.567 17.8762C114.379 17.765 114.197 17.6429 114.023 17.5105C113.66 17.1488 113.36 16.7285 113.136 16.2673C112.437 14.896 112.318 12.5695 112.793 10.8326C113.081 9.79044 113.566 8.71174 114.471 8.2638C115.039 8.02256 115.673 7.99017 116.263 8.17238C116.76 8.34388 117.23 8.58718 117.657 8.89457C118.077 8.61118 118.475 8.28665 118.9 7.98041L119.206 7.99869Z" fill="#F1F6FF"/>
<path fill-rule="evenodd" clip-rule="evenodd" d="M85.3576 21.9399C85.609 21.981 85.9426 21.9399 86.226 21.9399V22.6255H81.0199V21.9399H81.5638V12.716C81.5909 12.2106 81.5909 11.704 81.5638 11.1985C81.5181 10.7415 81.4038 10.2112 81.0382 10.1838C80.5811 10.1518 80.4165 10.6866 80.316 11.0523C80.1966 11.5013 80.1186 11.9603 80.0829 12.4235C80.0006 13.4291 80.0829 14.5764 80.0829 15.5819V21.9399C80.2746 21.9541 80.4671 21.9541 80.6588 21.9399V22.6255H75.3887V21.9399H76.1794V9.17367H75.3887V8.41492C77.0022 8.38292 78.4054 8.13153 80.028 8.10868C80.0737 8.98627 80.028 9.93699 80.028 10.8512C80.5217 9.66275 81.1113 8.16353 82.5922 8.04926C84.4663 7.90299 85.001 9.49363 85.2113 11.098C85.3259 12.269 85.3687 13.4459 85.3393 14.6221L85.3576 21.9399Z" fill="#F1F6FF"/>
<path fill-rule="evenodd" clip-rule="evenodd" d="M95.8899 16.4546H90.8118C90.8118 18.1458 90.7524 20.1432 91.3557 21.295C91.4314 21.4602 91.5435 21.606 91.6836 21.7216C91.8237 21.8372 91.9882 21.9195 92.1647 21.9624C92.2898 22.0086 92.4181 22.0452 92.5487 22.0721C93.344 22.1224 94.0251 21.4139 94.409 20.8974C94.8363 20.2781 95.1762 19.6029 95.4191 18.8908C95.5197 19.0416 95.7117 19.1239 95.7254 19.2885C95.6903 19.4284 95.6349 19.5623 95.5608 19.6861C94.8158 21.327 93.9519 23.1188 91.6802 23.1188C90.7457 23.1311 89.8349 22.8248 89.0977 22.2503C87.8545 21.2402 87.1871 19.5353 86.9266 17.5196C86.6711 15.4706 86.8693 13.3905 87.5071 11.4267C88.0876 9.82234 89.0109 8.19057 91.0997 8.04888C91.5446 8.01545 91.9916 8.07545 92.412 8.22501C92.8323 8.37457 93.2167 8.61039 93.5405 8.91733C94.1152 9.47606 94.5694 10.1465 94.8752 10.8873C95.6185 12.646 95.9649 14.5468 95.8899 16.4546ZM92.1647 10.1652C92.1647 9.58466 92.0733 8.93561 91.7077 8.75735C91.0312 8.43739 90.9032 9.5161 90.8575 10.1286C90.7204 11.8975 90.8575 14.0869 90.8026 15.7644H92.1739C92.1053 14.0138 92.2516 12.0118 92.1647 10.1834V10.1652Z" fill="#F1F6FF"/>
<path fill-rule="evenodd" clip-rule="evenodd" d="M28.9341 8.30441V11.2114C29.4689 9.93619 29.9854 8.21757 31.8091 8.41411C32.1122 8.45908 32.3953 8.59266 32.6227 8.79806C33.8203 9.93162 33.9574 13.4603 32.7644 14.6441C32.6308 14.7793 32.4701 14.8847 32.2928 14.9533C32.1156 15.0218 31.9258 15.052 31.736 15.0418C31.5065 15.0109 31.2855 14.9343 31.086 14.8165C30.8866 14.6988 30.7129 14.5422 30.575 14.3561C30.1046 13.6001 29.878 12.7177 29.9259 11.8285C29.9259 11.5725 29.9899 11.2571 30.0174 10.9783C30.0448 10.6995 30.1362 10.3978 29.8939 10.2561C29.5603 10.4481 29.478 10.9006 29.3866 11.2891C29.1423 12.7197 29.0518 14.1724 29.1169 15.6223V21.7608C29.4597 21.802 29.8802 21.7608 30.255 21.7608V22.4282H24.3633V21.7791H25.1632C25.1997 17.6654 25.1632 13.5014 25.1632 9.36941H24.3633V8.64722C25.8854 8.53295 27.3983 8.40954 28.9341 8.30441Z" fill="#F1F6FF"/>
<path fill-rule="evenodd" clip-rule="evenodd" d="M38.8499 8.30441C38.9367 12.7152 38.8499 17.2815 38.8864 21.7608C39.1818 21.7771 39.4778 21.7771 39.7732 21.7608V22.4282H34.1328V21.7791H34.9281C34.9693 17.6654 34.9281 13.5151 34.9281 9.39226H34.1328V8.64722C35.8103 8.63808 37.2867 8.4324 38.8499 8.30441Z" fill="#F1F6FF"/>
<path fill-rule="evenodd" clip-rule="evenodd" d="M57.1609 9.39263H56.297V8.64759C57.9333 8.64759 59.3229 8.36877 60.9729 8.3642V21.7795H61.8871V22.4468C60.3546 22.491 58.8272 22.6438 57.3163 22.9039C57.2752 22.0309 57.3163 21.0756 57.3163 20.1614C56.7129 21.3864 56.137 22.7256 54.5738 22.8673C52.7455 23.0319 52.2519 21.5967 51.9776 20.0654C51.7034 18.5342 51.7582 16.683 51.7582 14.8319V9.39263H50.9629V8.64759C52.4666 8.61586 53.9678 8.50755 55.4605 8.32307C55.5748 8.32307 55.6251 8.23165 55.6434 8.44648C55.7165 9.38349 55.6434 10.5902 55.6434 11.4678V19.5581C55.6434 20.2026 55.6114 21.0436 56.3473 20.8973C56.9598 20.7693 57.1152 19.3387 57.1563 18.6119C57.2203 17.5058 57.1563 16.4317 57.1563 15.5403L57.1609 9.39263Z" fill="#F1F6FF"/>
<path fill-rule="evenodd" clip-rule="evenodd" d="M72.4976 21.7799H73.366V22.4472H68.1462V21.7799H68.6673C68.6993 18.9643 68.6901 15.8379 68.6673 12.876C68.6673 12.4189 68.6673 11.8933 68.6353 11.4316C68.6033 10.97 68.5119 10.3986 68.1279 10.3666C67.6708 10.3255 67.4926 10.8237 67.3874 11.1802C67.0309 12.3595 67.1361 14.0644 67.1361 15.5819V21.7799H67.712V22.4472H62.4556V21.7799H63.2509V9.39305H62.4556V8.64801C64.0873 8.62059 65.4769 8.36462 67.1361 8.36462V11.0203C67.6251 9.83185 68.1873 8.56117 69.5723 8.32349C70.1148 8.22852 70.6732 8.3376 71.1401 8.62973C71.8211 9.08681 72.1502 10.0787 72.3193 11.0888C72.4637 12.2316 72.5172 13.384 72.4793 14.5352C72.5022 17.0674 72.4976 19.5585 72.4976 21.7799Z" fill="#F1F6FF"/>
<path fill-rule="evenodd" clip-rule="evenodd" d="M96.5719 8.41449H101.773V9.17324H101.252C101.897 12.3728 102.564 15.5084 103.241 18.6576C103.455 17.6292 103.661 16.6145 103.871 15.5632C103.91 15.422 103.941 15.2785 103.963 15.1336C103.93 14.8823 103.875 14.6345 103.798 14.3931C103.451 12.6653 103.113 10.8781 102.77 9.17324H102.084V8.41449H107.482V9.17324H106.6C107.213 12.2494 107.857 15.2981 108.479 18.3697C108.899 16.4271 109.347 14.2057 109.763 12.1351C109.951 11.404 110.036 10.6501 110.015 9.89543C109.983 9.43835 109.841 9.10468 109.292 9.17324V8.41449H111.747V9.17324C111.621 9.17554 111.498 9.20683 111.386 9.26466C110.59 9.67146 110.412 11.2438 110.211 12.2448C109.521 15.6912 108.84 19.2701 108.131 22.6297H105.531C105.089 20.5545 104.65 18.4718 104.214 16.3814C103.757 18.4337 103.341 20.5499 102.898 22.6297H100.155C99.2412 18.132 98.2539 13.6709 97.3215 9.17324H96.5444V8.46934C96.5536 8.44191 96.5536 8.41906 96.5719 8.41449Z" fill="#F1F6FF"/>
<path fill-rule="evenodd" clip-rule="evenodd" d="M126.067 16.5918V17.6385C125.998 17.6385 125.92 17.5837 125.852 17.5471C125.615 17.3937 125.343 17.305 125.061 17.2898C124.78 17.2745 124.499 17.3333 124.247 17.4603C123 18.2967 122.981 22.031 124.878 22.031C125.304 22.0143 125.716 21.8763 126.067 21.6334V22.6664C125.667 22.8982 125.209 23.0094 124.747 22.9867C124.286 22.964 123.841 22.8083 123.466 22.5384C122.245 21.4688 122.291 18.2327 123.379 16.9757C123.702 16.6011 124.15 16.3559 124.64 16.2856C125.135 16.2469 125.631 16.3533 126.067 16.5918Z" fill="#F1F6FF"/>
<path fill-rule="evenodd" clip-rule="evenodd" d="M128.547 16.409C128.844 16.3916 129.141 16.4416 129.415 16.5553C131.244 17.3963 131.171 22.1179 129.324 23.0047C129.014 23.135 128.674 23.1799 128.341 23.1349C128.007 23.0899 127.692 22.9566 127.427 22.7487C126.294 21.7934 126.248 18.5573 127.157 17.2409C127.31 17.0048 127.514 16.807 127.755 16.6627C127.996 16.5184 128.267 16.4316 128.547 16.409ZM128.168 17.4603C127.029 18.0545 126.956 21.702 128.273 22.1545C128.515 22.2224 128.771 22.2224 129.013 22.1545C130.019 21.7431 130.229 19.1012 129.594 17.9814C129.491 17.7704 129.325 17.5973 129.118 17.4872C128.911 17.3772 128.674 17.3357 128.442 17.3689C128.347 17.3881 128.255 17.4188 128.168 17.4603Z" fill="#F1F6FF"/>
<path fill-rule="evenodd" clip-rule="evenodd" d="M134.632 17.7855C134.785 17.3704 135.009 16.9852 135.295 16.6474C135.414 16.5474 135.553 16.4752 135.704 16.436C135.854 16.3969 136.011 16.3918 136.163 16.4211C136.316 16.4505 136.46 16.5135 136.585 16.6057C136.71 16.6978 136.813 16.8167 136.886 16.9536C137.215 17.6347 137.101 18.8276 137.101 19.8926V23.0419H136.186V18.4711C136.186 18.014 136.186 17.3284 135.821 17.3147C135.455 17.301 135.3 17.7718 135.19 17.9638C135.08 18.1557 135.053 18.2654 134.989 18.398C134.908 18.5338 134.842 18.6778 134.792 18.8276C134.765 19.176 134.765 19.526 134.792 19.8744V23.0236H133.832V18.4528C133.832 17.9958 133.874 17.3147 133.494 17.2964C133.115 17.2781 132.799 18.0689 132.662 18.3797C132.582 18.5164 132.515 18.6603 132.461 18.8094C132.434 19.1577 132.434 19.5077 132.461 19.8561V23.0054H131.506V16.5194H132.301C132.301 16.9216 132.342 17.2964 132.338 17.7124C132.667 17.1959 132.818 16.4417 133.581 16.3914C134.344 16.3411 134.628 16.9582 134.632 17.7855Z" fill="#F1F6FF"/>
<path fill-rule="evenodd" clip-rule="evenodd" d="M120.833 20.405C122.159 20.1582 122.264 22.599 121.213 22.8778C120.536 23.0561 120.111 22.3933 120.056 21.8494C120.025 21.6263 120.042 21.3991 120.108 21.1835C120.173 20.968 120.285 20.7693 120.436 20.6016C120.547 20.4993 120.685 20.431 120.833 20.405Z" fill="#F1F6FF"/>
</svg>
