<svg width="390" height="184" viewBox="0 0 390 184" fill="none" xmlns="http://www.w3.org/2000/svg">
<path d="M83.57 175C83.3367 175 83.1383 174.918 82.975 174.755C82.8117 174.592 82.73 174.393 82.73 174.16V151.34C82.73 151.107 82.8117 150.908 82.975 150.745C83.1383 150.582 83.3367 150.5 83.57 150.5H86.86C87.1167 150.5 87.315 150.582 87.455 150.745C87.6183 150.908 87.7 151.107 87.7 151.34V174.16C87.7 174.393 87.6183 174.592 87.455 174.755C87.315 174.918 87.1167 175 86.86 175H83.57ZM94.029 175C93.7957 175 93.5973 174.918 93.434 174.755C93.2707 174.592 93.189 174.393 93.189 174.16V151.375C93.189 151.118 93.2707 150.908 93.434 150.745C93.5973 150.582 93.7957 150.5 94.029 150.5H103.094C105.917 150.5 108.146 151.153 109.779 152.46C111.412 153.767 112.229 155.668 112.229 158.165C112.229 159.892 111.797 161.327 110.934 162.47C110.094 163.613 108.962 164.442 107.539 164.955L112.649 173.88C112.719 174.02 112.754 174.148 112.754 174.265C112.754 174.475 112.672 174.65 112.509 174.79C112.369 174.93 112.206 175 112.019 175H108.834C108.437 175 108.134 174.895 107.924 174.685C107.714 174.475 107.551 174.265 107.434 174.055L102.919 165.76H98.054V174.16C98.054 174.393 97.9723 174.592 97.809 174.755C97.669 174.918 97.4707 175 97.214 175H94.029ZM98.054 161.805H102.989C104.412 161.805 105.474 161.49 106.174 160.86C106.874 160.207 107.224 159.297 107.224 158.13C107.224 156.963 106.874 156.053 106.174 155.4C105.497 154.723 104.436 154.385 102.989 154.385H98.054V161.805ZM115.234 175C115.047 175 114.872 174.93 114.709 174.79C114.569 174.65 114.499 174.475 114.499 174.265C114.499 174.172 114.522 174.067 114.569 173.95L123.004 151.375C123.074 151.142 123.202 150.943 123.389 150.78C123.599 150.593 123.879 150.5 124.229 150.5H128.044C128.394 150.5 128.662 150.593 128.849 150.78C129.035 150.943 129.175 151.142 129.269 151.375L137.704 173.95C137.727 174.067 137.739 174.172 137.739 174.265C137.739 174.475 137.669 174.65 137.529 174.79C137.389 174.93 137.225 175 137.039 175H133.994C133.667 175 133.422 174.93 133.259 174.79C133.119 174.627 133.025 174.475 132.979 174.335L131.334 170.065H120.939L119.294 174.335C119.247 174.475 119.142 174.627 118.979 174.79C118.839 174.93 118.605 175 118.279 175H115.234ZM122.164 166.04H130.109L126.119 155.225L122.164 166.04ZM141.881 175C141.625 175 141.415 174.918 141.251 174.755C141.088 174.592 141.006 174.393 141.006 174.16V151.375C141.006 151.118 141.088 150.908 141.251 150.745C141.415 150.582 141.625 150.5 141.881 150.5H144.646C144.973 150.5 145.218 150.593 145.381 150.78C145.545 150.943 145.65 151.072 145.696 151.165L152.451 163.765L159.276 151.165C159.323 151.072 159.428 150.943 159.591 150.78C159.755 150.593 160 150.5 160.326 150.5H163.056C163.313 150.5 163.523 150.582 163.686 150.745C163.85 150.908 163.931 151.118 163.931 151.375V174.16C163.931 174.393 163.85 174.592 163.686 174.755C163.523 174.918 163.313 175 163.056 175H160.116C159.86 175 159.65 174.918 159.486 174.755C159.346 174.592 159.276 174.393 159.276 174.16V159.005L154.376 168.35C154.26 168.56 154.108 168.747 153.921 168.91C153.735 169.05 153.49 169.12 153.186 169.12H151.751C151.425 169.12 151.168 169.05 150.981 168.91C150.818 168.747 150.678 168.56 150.561 168.35L145.661 159.005V174.16C145.661 174.393 145.58 174.592 145.416 174.755C145.253 174.918 145.055 175 144.821 175H141.881ZM167.871 175C167.684 175 167.509 174.93 167.346 174.79C167.206 174.65 167.136 174.475 167.136 174.265C167.136 174.172 167.159 174.067 167.206 173.95L175.641 151.375C175.711 151.142 175.839 150.943 176.026 150.78C176.236 150.593 176.516 150.5 176.866 150.5H180.681C181.031 150.5 181.299 150.593 181.486 150.78C181.672 150.943 181.812 151.142 181.906 151.375L190.341 173.95C190.364 174.067 190.376 174.172 190.376 174.265C190.376 174.475 190.306 174.65 190.166 174.79C190.026 174.93 189.862 175 189.676 175H186.631C186.304 175 186.059 174.93 185.896 174.79C185.756 174.627 185.662 174.475 185.616 174.335L183.971 170.065H173.576L171.931 174.335C171.884 174.475 171.779 174.627 171.616 174.79C171.476 174.93 171.242 175 170.916 175H167.871ZM174.801 166.04H182.746L178.756 155.225L174.801 166.04ZM201.558 175C201.325 175 201.127 174.918 200.963 174.755C200.8 174.592 200.718 174.393 200.718 174.16V151.34C200.718 151.107 200.8 150.908 200.963 150.745C201.127 150.582 201.325 150.5 201.558 150.5H204.813C205.047 150.5 205.245 150.582 205.408 150.745C205.572 150.908 205.653 151.107 205.653 151.34V170.835H216.748C217.005 170.835 217.215 170.917 217.378 171.08C217.542 171.243 217.623 171.453 217.623 171.71V174.16C217.623 174.393 217.542 174.592 217.378 174.755C217.215 174.918 217.005 175 216.748 175H201.558ZM230.128 175.35C228.052 175.35 226.267 175.012 224.773 174.335C223.28 173.635 222.113 172.573 221.273 171.15C220.433 169.703 219.978 167.907 219.908 165.76C219.885 164.757 219.873 163.765 219.873 162.785C219.873 161.805 219.885 160.802 219.908 159.775C219.978 157.652 220.445 155.878 221.308 154.455C222.172 153.032 223.35 151.958 224.843 151.235C226.36 150.512 228.122 150.15 230.128 150.15C232.135 150.15 233.897 150.512 235.413 151.235C236.93 151.958 238.12 153.032 238.983 154.455C239.847 155.878 240.313 157.652 240.383 159.775C240.43 160.802 240.453 161.805 240.453 162.785C240.453 163.765 240.43 164.757 240.383 165.76C240.313 167.907 239.858 169.703 239.018 171.15C238.178 172.573 237 173.635 235.483 174.335C233.99 175.012 232.205 175.35 230.128 175.35ZM230.128 171.325C231.645 171.325 232.882 170.882 233.838 169.995C234.795 169.085 235.308 167.615 235.378 165.585C235.425 164.558 235.448 163.613 235.448 162.75C235.448 161.863 235.425 160.918 235.378 159.915C235.332 158.562 235.075 157.465 234.608 156.625C234.165 155.762 233.558 155.143 232.788 154.77C232.018 154.373 231.132 154.175 230.128 154.175C229.148 154.175 228.273 154.373 227.503 154.77C226.733 155.143 226.115 155.762 225.648 156.625C225.205 157.465 224.96 158.562 224.913 159.915C224.89 160.918 224.878 161.863 224.878 162.75C224.878 163.613 224.89 164.558 224.913 165.585C224.983 167.615 225.497 169.085 226.453 169.995C227.41 170.882 228.635 171.325 230.128 171.325ZM245.889 175C245.656 175 245.458 174.918 245.294 174.755C245.131 174.592 245.049 174.393 245.049 174.16V151.375C245.049 151.118 245.131 150.908 245.294 150.745C245.458 150.582 245.656 150.5 245.889 150.5H248.969C249.226 150.5 249.436 150.582 249.599 150.745C249.763 150.908 249.844 151.118 249.844 151.375V159.565L257.754 151.13C257.848 151.013 257.999 150.885 258.209 150.745C258.443 150.582 258.746 150.5 259.119 150.5H262.584C262.771 150.5 262.934 150.57 263.074 150.71C263.238 150.85 263.319 151.025 263.319 151.235C263.319 151.398 263.273 151.538 263.179 151.655L253.554 162.225L263.844 173.81C263.961 173.95 264.019 174.102 264.019 174.265C264.019 174.475 263.938 174.65 263.774 174.79C263.634 174.93 263.471 175 263.284 175H259.679C259.283 175 258.968 174.918 258.734 174.755C258.524 174.568 258.384 174.44 258.314 174.37L249.844 165.095V174.16C249.844 174.393 249.763 174.592 249.599 174.755C249.436 174.918 249.226 175 248.969 175H245.889ZM265.659 175C265.472 175 265.297 174.93 265.134 174.79C264.994 174.65 264.924 174.475 264.924 174.265C264.924 174.172 264.947 174.067 264.994 173.95L273.429 151.375C273.499 151.142 273.627 150.943 273.814 150.78C274.024 150.593 274.304 150.5 274.654 150.5H278.469C278.819 150.5 279.087 150.593 279.274 150.78C279.46 150.943 279.6 151.142 279.694 151.375L288.129 173.95C288.152 174.067 288.164 174.172 288.164 174.265C288.164 174.475 288.094 174.65 287.954 174.79C287.814 174.93 287.65 175 287.464 175H284.419C284.092 175 283.847 174.93 283.684 174.79C283.544 174.627 283.45 174.475 283.404 174.335L281.759 170.065H271.364L269.719 174.335C269.672 174.475 269.567 174.627 269.404 174.79C269.264 174.93 269.03 175 268.704 175H265.659ZM272.589 166.04H280.534L276.544 155.225L272.589 166.04ZM292.271 175C292.038 175 291.84 174.918 291.676 174.755C291.513 174.592 291.431 174.393 291.431 174.16V151.34C291.431 151.107 291.513 150.908 291.676 150.745C291.84 150.582 292.038 150.5 292.271 150.5H295.526C295.76 150.5 295.958 150.582 296.121 150.745C296.285 150.908 296.366 151.107 296.366 151.34V170.835H307.461C307.718 170.835 307.928 170.917 308.091 171.08C308.255 171.243 308.336 171.453 308.336 171.71V174.16C308.336 174.393 308.255 174.592 308.091 174.755C307.928 174.918 307.718 175 307.461 175H292.271Z" fill="#0097A2"/>
<path d="M0 110.307V37.394H31.3296C42.3476 37.394 50.4028 39.5352 55.4836 43.8174C60.5991 48.007 63.1568 54.7197 63.1568 63.9901C63.1568 72.5545 60.8885 78.8158 56.3285 82.7624C51.7106 86.7784 44.4193 88.7922 34.466 88.7922H26.2488V110.307H0ZM26.353 57.7172V69.8231H30.4385C32.9962 69.8231 34.8827 69.2792 36.1211 68.1913C37.4867 67.196 38.158 65.7493 38.158 63.8281C38.158 62.011 37.4752 60.518 36.1211 59.3607C34.8943 58.2728 32.9962 57.7288 30.4385 57.7288H26.353V57.7172Z" fill="#00AEEF"/>
<path d="M70.7721 110.307V58.805H95.0765V66.027C97.2061 63.1336 99.6134 60.8999 102.298 59.3028C104.949 57.8792 107.888 57.1616 111.117 57.1616H112.217C112.553 57.1616 112.784 57.1964 112.911 57.2658V82.2646C111.546 81.5355 110.273 80.9568 109.081 80.517C107.819 80.1814 106.754 80.0194 105.898 80.0194C102.715 80.0194 100.273 80.899 98.5718 82.6582C96.7779 84.4521 95.8867 86.8594 95.8867 89.8801V110.296H70.7721V110.307Z" fill="#00AEEF"/>
<path d="M178.406 84.7063C178.406 88.4908 177.596 92.1944 175.964 95.8169C174.228 99.37 171.832 102.472 168.777 105.134C166.15 107.356 163.083 109.115 159.588 110.411C156.035 111.638 152.273 112.251 148.292 112.251C144.241 112.251 140.503 111.638 137.054 110.411C133.686 109.312 130.596 107.552 127.772 105.134C124.682 102.506 122.332 99.4047 120.735 95.8169C118.999 92.3333 118.143 88.6297 118.143 84.7063C118.143 80.725 119.011 76.9867 120.735 73.5031C121.499 71.7439 122.448 70.1352 123.582 68.677C124.717 67.2187 126.105 65.7605 127.772 64.2906C130.596 61.8717 133.698 60.1126 137.054 59.0131C140.503 57.7863 144.264 57.1729 148.315 57.1729C152.296 57.1729 156.058 57.7863 159.599 59.0131C163.141 60.2399 166.231 61.999 168.893 64.2906C171.879 66.8831 174.24 69.95 175.964 73.5031C177.596 77.1256 178.406 80.8523 178.406 84.7063ZM148.303 91.7314C150.121 91.7314 151.579 91.0833 152.667 89.7871C153.789 88.4561 154.356 86.7664 154.356 84.7063C154.356 82.5768 153.824 80.8871 152.771 79.6256C151.683 78.3293 150.19 77.6811 148.303 77.6811C146.452 77.6811 144.993 78.3293 143.94 79.6256C142.783 80.9565 142.204 82.6462 142.204 84.7063C142.204 86.7664 142.783 88.4561 143.94 89.7871C144.993 91.0833 146.452 91.7314 148.303 91.7314Z" fill="#00AEEF"/>
<path d="M281.608 88.6992H246.123V89.4978C246.123 92.0208 246.609 93.9652 247.57 95.3193C248.426 96.6155 249.861 97.2636 251.852 97.2636C253.044 97.2636 254.063 96.9164 254.884 96.222C255.741 95.597 256.423 94.6133 256.921 93.2823L280.057 94.8216C278.031 100.365 274.536 104.682 269.559 107.772C264.618 110.758 258.576 112.251 251.447 112.251C247.466 112.251 243.75 111.638 240.302 110.411C236.621 109.08 233.496 107.321 230.95 105.134C227.825 102.379 225.464 99.2774 223.832 95.8169C222.177 92.2291 221.344 88.5256 221.344 84.7063C221.344 80.725 222.2 76.9867 223.937 73.5031C224.7 71.7439 225.649 70.1352 226.772 68.677C227.895 67.2187 229.295 65.7605 230.95 64.2906C233.774 61.8717 236.853 60.1126 240.209 59.0131C243.658 57.7863 247.408 57.1729 251.458 57.1729C254.144 57.1729 256.771 57.4506 259.317 58.0177C261.875 58.5848 264.212 59.395 266.33 60.4598C270.543 62.624 274.177 65.8414 277.233 70.1237C278.76 72.3111 279.872 74.6952 280.566 77.2414C281.33 79.9033 281.712 82.7504 281.712 85.8058V87.5534C281.712 88.1089 281.677 88.4909 281.608 88.6992ZM246.32 77.4844L257.662 77.5886C257.5 75.4938 256.979 73.9892 256.123 73.0517C255.197 72.0564 253.831 71.5588 252.049 71.5588C250.521 71.5588 249.225 72.0564 248.16 73.0517C247.234 74.1512 246.621 75.6326 246.32 77.4844Z" fill="#00AEEF"/>
<path d="M337.971 82.8666L320.194 97.5302L317.231 99.9722L340.934 136.186H372.865L337.971 82.8666ZM283.795 0.231445H251.863L290.264 58.7357L307.046 35.6002L283.795 0.231445Z" fill="url(#paint0_linear_91_1257)"/>
<path d="M389.299 0H359.983L311.143 59.3608L329.267 67.1381L272.522 129.774L266.863 136.012L273.865 130.249L354.278 64.0133L334.545 57.1965L389.299 0Z" fill="#FDD011"/>
<path d="M361.384 0H338.052L309.5 39.3385L292.718 62.4625L291.827 63.6893L294.014 64.4415L314.835 71.6403L298.678 93.3059L293.065 100.84L271.724 129.496L266.863 136.012L272.522 129.774L329.267 67.1381L311.143 59.3608L361.384 0Z" fill="#E1AC25"/>
<path d="M74.7305 44.3616V2.46533H89.7992V30.7627H104.44V44.35H74.7305V44.3616Z" fill="#00AEEF"/>
<path d="M141.452 29.6511C141.452 31.8269 140.989 33.9565 140.051 36.0281C139.056 38.0651 137.679 39.8474 135.92 41.3751C134.404 42.6482 132.656 43.6667 130.642 44.4074C128.605 45.1133 126.441 45.4722 124.149 45.4722C121.823 45.4722 119.67 45.1133 117.691 44.4074C115.759 43.7824 113.988 42.7639 112.356 41.3751C110.574 39.8705 109.231 38.0882 108.317 36.0281C107.321 34.0259 106.824 31.8964 106.824 29.6511C106.824 27.3595 107.321 25.2184 108.317 23.2162C108.757 22.2093 109.301 21.2835 109.949 20.4386C110.597 19.5937 111.395 18.7604 112.356 17.9156C113.976 16.5267 115.759 15.5083 117.691 14.8833C119.67 14.1773 121.835 13.8301 124.161 13.8301C126.453 13.8301 128.617 14.1889 130.642 14.8833C132.679 15.5893 134.45 16.5962 135.978 17.9156C137.69 19.4086 139.045 21.1677 140.04 23.2047C140.989 25.2879 141.452 27.4405 141.452 29.6511ZM124.161 33.6903C125.203 33.6903 126.036 33.3199 126.672 32.5792C127.321 31.8154 127.645 30.8432 127.645 29.6627C127.645 28.4475 127.344 27.4638 126.73 26.7462C126.105 26.0055 125.249 25.6351 124.161 25.6351C123.096 25.6351 122.263 26.0055 121.65 26.7462C120.978 27.51 120.654 28.4822 120.654 29.6627C120.654 30.8432 120.99 31.8154 121.65 32.5792C122.263 33.3084 123.096 33.6903 124.161 33.6903Z" fill="#00AEEF"/>
<path d="M146.29 44.3616V0.0117188H160.537V26.0754L166.578 14.768H183.406L172.909 28.9919L183.985 44.3616H166.983L160.548 33.2857V44.3616H146.29Z" fill="#00AEEF"/>
<path d="M206.669 44.3614V39.8941C205.199 41.8616 203.706 43.2735 202.178 44.13C200.558 45.0211 198.834 45.4725 196.993 45.4725C193.579 45.4725 190.732 44.0027 188.441 41.063C187.33 39.6742 186.496 38.0191 185.918 36.0979C185.35 34.1767 185.061 32.0819 185.061 29.8135C185.061 24.9873 186.172 21.1218 188.383 18.2284C190.559 15.2887 193.429 13.8188 196.993 13.8188C198.845 13.8188 200.5 14.2124 201.97 14.9878C203.475 15.8327 204.875 17.0595 206.148 18.6798V14.7563H219.921V44.3499H206.669V44.3614ZM198.834 29.4779C198.834 30.7741 199.192 31.781 199.898 32.5102C200.523 33.2972 201.403 33.6791 202.537 33.6791C203.695 33.6791 204.597 33.2856 205.222 32.5102C205.894 31.7463 206.229 30.7394 206.229 29.4779C206.229 28.1817 205.894 27.14 205.222 26.3646C204.493 25.5776 203.602 25.1957 202.537 25.1957C201.449 25.1957 200.57 25.5892 199.898 26.3646C199.181 27.1285 198.834 28.1585 198.834 29.4779Z" fill="#00AEEF"/>
<path d="M226.274 44.3616V0.0117188H240.637V44.3616H226.274Z" fill="#00AEEF"/>
<path d="M191.38 94.6952V59.4307H214.354V100.933C214.354 104.452 214.111 107.287 213.613 109.44C213.173 111.535 212.409 113.433 211.298 115.146C209.296 118.317 206.68 120.724 203.451 122.379C200.026 124.092 196.357 124.948 192.468 124.948C188.51 124.948 185.026 124.381 182.006 123.247C178.696 121.974 175.698 120.215 173.024 117.97L180.524 100.841C181.682 102.114 182.862 103.167 184.054 103.977C185.188 104.614 186.207 104.938 187.11 104.938C188.765 104.938 189.899 104.313 190.512 103.063C191.091 101.871 191.38 99.0816 191.38 94.6952Z" fill="#00AEEF"/>
<defs>
<linearGradient id="paint0_linear_91_1257" x1="251.858" y1="68.2039" x2="372.869" y2="68.2039" gradientUnits="userSpaceOnUse">
<stop stop-color="#459F46"/>
<stop offset="0.1473" stop-color="#56A743"/>
<stop offset="0.7221" stop-color="#96C53A"/>
<stop offset="0.9939" stop-color="#AFD136"/>
</linearGradient>
</defs>
</svg>
