<svg width="390" height="183" viewBox="0 0 390 183" fill="none" xmlns="http://www.w3.org/2000/svg">
<path d="M80.0026 174C79.6526 174 79.3726 173.907 79.1626 173.72C78.9759 173.51 78.8476 173.253 78.7776 172.95L74.6126 150.515C74.6126 150.445 74.6009 150.387 74.5776 150.34C74.5776 150.293 74.5776 150.258 74.5776 150.235C74.5776 150.025 74.6476 149.85 74.7876 149.71C74.9509 149.57 75.1259 149.5 75.3126 149.5H78.3926C78.9759 149.5 79.3026 149.733 79.3726 150.2L82.2776 166.055L85.4276 155.8C85.4976 155.613 85.6142 155.427 85.7776 155.24C85.9642 155.03 86.2326 154.925 86.5826 154.925H88.4726C88.8459 154.925 89.1142 155.03 89.2776 155.24C89.4409 155.427 89.5459 155.613 89.5926 155.8L92.7776 166.02L95.6826 150.2C95.7526 149.733 96.0792 149.5 96.6626 149.5H99.7426C99.9292 149.5 100.093 149.57 100.233 149.71C100.373 149.85 100.443 150.025 100.443 150.235C100.443 150.258 100.443 150.293 100.443 150.34C100.443 150.387 100.431 150.445 100.408 150.515L96.2426 172.95C96.1959 173.253 96.0676 173.51 95.8576 173.72C95.6476 173.907 95.3676 174 95.0176 174H92.6726C92.3226 174 92.0426 173.907 91.8326 173.72C91.6459 173.533 91.5176 173.335 91.4476 173.125L87.5276 161.435L83.6076 173.125C83.5142 173.335 83.3742 173.533 83.1876 173.72C83.0009 173.907 82.7209 174 82.3476 174H80.0026ZM102.056 174C101.869 174 101.694 173.93 101.531 173.79C101.391 173.65 101.321 173.475 101.321 173.265C101.321 173.172 101.344 173.067 101.391 172.95L109.826 150.375C109.896 150.142 110.024 149.943 110.211 149.78C110.421 149.593 110.701 149.5 111.051 149.5H114.866C115.216 149.5 115.484 149.593 115.671 149.78C115.857 149.943 115.997 150.142 116.091 150.375L124.526 172.95C124.549 173.067 124.561 173.172 124.561 173.265C124.561 173.475 124.491 173.65 124.351 173.79C124.211 173.93 124.047 174 123.861 174H120.816C120.489 174 120.244 173.93 120.081 173.79C119.941 173.627 119.847 173.475 119.801 173.335L118.156 169.065H107.761L106.116 173.335C106.069 173.475 105.964 173.627 105.801 173.79C105.661 173.93 105.427 174 105.101 174H102.056ZM108.986 165.04H116.931L112.941 154.225L108.986 165.04ZM128.668 174C128.435 174 128.236 173.918 128.073 173.755C127.91 173.592 127.828 173.393 127.828 173.16V150.375C127.828 150.118 127.91 149.908 128.073 149.745C128.236 149.582 128.435 149.5 128.668 149.5H137.733C140.556 149.5 142.785 150.153 144.418 151.46C146.051 152.767 146.868 154.668 146.868 157.165C146.868 158.892 146.436 160.327 145.573 161.47C144.733 162.613 143.601 163.442 142.178 163.955L147.288 172.88C147.358 173.02 147.393 173.148 147.393 173.265C147.393 173.475 147.311 173.65 147.148 173.79C147.008 173.93 146.845 174 146.658 174H143.473C143.076 174 142.773 173.895 142.563 173.685C142.353 173.475 142.19 173.265 142.073 173.055L137.558 164.76H132.693V173.16C132.693 173.393 132.611 173.592 132.448 173.755C132.308 173.918 132.11 174 131.853 174H128.668ZM132.693 160.805H137.628C139.051 160.805 140.113 160.49 140.813 159.86C141.513 159.207 141.863 158.297 141.863 157.13C141.863 155.963 141.513 155.053 140.813 154.4C140.136 153.723 139.075 153.385 137.628 153.385H132.693V160.805ZM152.218 174C151.985 174 151.786 173.918 151.623 173.755C151.46 173.592 151.378 173.393 151.378 173.16V150.375C151.378 150.118 151.46 149.908 151.623 149.745C151.786 149.582 151.985 149.5 152.218 149.5H154.913C155.24 149.5 155.473 149.582 155.613 149.745C155.776 149.885 155.881 149.99 155.928 150.06L166.008 165.74V150.375C166.008 150.118 166.078 149.908 166.218 149.745C166.381 149.582 166.591 149.5 166.848 149.5H169.788C170.045 149.5 170.255 149.582 170.418 149.745C170.581 149.908 170.663 150.118 170.663 150.375V173.125C170.663 173.382 170.581 173.592 170.418 173.755C170.255 173.918 170.056 174 169.823 174H167.093C166.766 174 166.533 173.918 166.393 173.755C166.253 173.592 166.148 173.487 166.078 173.44L156.033 158.11V173.16C156.033 173.393 155.951 173.592 155.788 173.755C155.625 173.918 155.415 174 155.158 174H152.218ZM174.619 174C174.432 174 174.257 173.93 174.094 173.79C173.954 173.65 173.884 173.475 173.884 173.265C173.884 173.172 173.907 173.067 173.954 172.95L182.389 150.375C182.459 150.142 182.587 149.943 182.774 149.78C182.984 149.593 183.264 149.5 183.614 149.5H187.429C187.779 149.5 188.047 149.593 188.234 149.78C188.421 149.943 188.561 150.142 188.654 150.375L197.089 172.95C197.112 173.067 197.124 173.172 197.124 173.265C197.124 173.475 197.054 173.65 196.914 173.79C196.774 173.93 196.611 174 196.424 174H193.379C193.052 174 192.807 173.93 192.644 173.79C192.504 173.627 192.411 173.475 192.364 173.335L190.719 169.065H180.324L178.679 173.335C178.632 173.475 178.527 173.627 178.364 173.79C178.224 173.93 177.991 174 177.664 174H174.619ZM181.549 165.04H189.494L185.504 154.225L181.549 165.04ZM208.307 174C208.073 174 207.875 173.918 207.712 173.755C207.548 173.592 207.467 173.393 207.467 173.16V150.34C207.467 150.107 207.548 149.908 207.712 149.745C207.875 149.582 208.073 149.5 208.307 149.5H211.562C211.795 149.5 211.993 149.582 212.157 149.745C212.32 149.908 212.402 150.107 212.402 150.34V169.835H223.497C223.753 169.835 223.963 169.917 224.127 170.08C224.29 170.243 224.372 170.453 224.372 170.71V173.16C224.372 173.393 224.29 173.592 224.127 173.755C223.963 173.918 223.753 174 223.497 174H208.307ZM236.877 174.35C234.8 174.35 233.015 174.012 231.522 173.335C230.029 172.635 228.862 171.573 228.022 170.15C227.182 168.703 226.727 166.907 226.657 164.76C226.634 163.757 226.622 162.765 226.622 161.785C226.622 160.805 226.634 159.802 226.657 158.775C226.727 156.652 227.194 154.878 228.057 153.455C228.92 152.032 230.099 150.958 231.592 150.235C233.109 149.512 234.87 149.15 236.877 149.15C238.884 149.15 240.645 149.512 242.162 150.235C243.679 150.958 244.869 152.032 245.732 153.455C246.595 154.878 247.062 156.652 247.132 158.775C247.179 159.802 247.202 160.805 247.202 161.785C247.202 162.765 247.179 163.757 247.132 164.76C247.062 166.907 246.607 168.703 245.767 170.15C244.927 171.573 243.749 172.635 242.232 173.335C240.739 174.012 238.954 174.35 236.877 174.35ZM236.877 170.325C238.394 170.325 239.63 169.882 240.587 168.995C241.544 168.085 242.057 166.615 242.127 164.585C242.174 163.558 242.197 162.613 242.197 161.75C242.197 160.863 242.174 159.918 242.127 158.915C242.08 157.562 241.824 156.465 241.357 155.625C240.914 154.762 240.307 154.143 239.537 153.77C238.767 153.373 237.88 153.175 236.877 153.175C235.897 153.175 235.022 153.373 234.252 153.77C233.482 154.143 232.864 154.762 232.397 155.625C231.954 156.465 231.709 157.562 231.662 158.915C231.639 159.918 231.627 160.863 231.627 161.75C231.627 162.613 231.639 163.558 231.662 164.585C231.732 166.615 232.245 168.085 233.202 168.995C234.159 169.882 235.384 170.325 236.877 170.325ZM252.638 174C252.405 174 252.206 173.918 252.043 173.755C251.88 173.592 251.798 173.393 251.798 173.16V150.375C251.798 150.118 251.88 149.908 252.043 149.745C252.206 149.582 252.405 149.5 252.638 149.5H255.718C255.975 149.5 256.185 149.582 256.348 149.745C256.511 149.908 256.593 150.118 256.593 150.375V158.565L264.503 150.13C264.596 150.013 264.748 149.885 264.958 149.745C265.191 149.582 265.495 149.5 265.868 149.5H269.333C269.52 149.5 269.683 149.57 269.823 149.71C269.986 149.85 270.068 150.025 270.068 150.235C270.068 150.398 270.021 150.538 269.928 150.655L260.303 161.225L270.593 172.81C270.71 172.95 270.768 173.102 270.768 173.265C270.768 173.475 270.686 173.65 270.523 173.79C270.383 173.93 270.22 174 270.033 174H266.428C266.031 174 265.716 173.918 265.483 173.755C265.273 173.568 265.133 173.44 265.063 173.37L256.593 164.095V173.16C256.593 173.393 256.511 173.592 256.348 173.755C256.185 173.918 255.975 174 255.718 174H252.638ZM272.407 174C272.22 174 272.045 173.93 271.882 173.79C271.742 173.65 271.672 173.475 271.672 173.265C271.672 173.172 271.695 173.067 271.742 172.95L280.177 150.375C280.247 150.142 280.375 149.943 280.562 149.78C280.772 149.593 281.052 149.5 281.402 149.5H285.217C285.567 149.5 285.835 149.593 286.022 149.78C286.209 149.943 286.349 150.142 286.442 150.375L294.877 172.95C294.9 173.067 294.912 173.172 294.912 173.265C294.912 173.475 294.842 173.65 294.702 173.79C294.562 173.93 294.399 174 294.212 174H291.167C290.84 174 290.595 173.93 290.432 173.79C290.292 173.627 290.199 173.475 290.152 173.335L288.507 169.065H278.112L276.467 173.335C276.42 173.475 276.315 173.627 276.152 173.79C276.012 173.93 275.779 174 275.452 174H272.407ZM279.337 165.04H287.282L283.292 154.225L279.337 165.04ZM299.02 174C298.786 174 298.588 173.918 298.425 173.755C298.261 173.592 298.18 173.393 298.18 173.16V150.34C298.18 150.107 298.261 149.908 298.425 149.745C298.588 149.582 298.786 149.5 299.02 149.5H302.275C302.508 149.5 302.706 149.582 302.87 149.745C303.033 149.908 303.115 150.107 303.115 150.34V169.835H314.21C314.466 169.835 314.676 169.917 314.84 170.08C315.003 170.243 315.085 170.453 315.085 170.71V173.16C315.085 173.393 315.003 173.592 314.84 173.755C314.676 173.918 314.466 174 314.21 174H299.02Z" fill="white"/>
<path d="M0 110.307V37.394H31.3296C42.3476 37.394 50.4028 39.5352 55.4836 43.8174C60.5991 48.007 63.1568 54.7197 63.1568 63.9901C63.1568 72.5545 60.8885 78.8158 56.3285 82.7624C51.7106 86.7784 44.4193 88.7922 34.466 88.7922H26.2488V110.307H0ZM26.353 57.7172V69.8231H30.4385C32.9962 69.8231 34.8827 69.2792 36.1211 68.1913C37.4867 67.196 38.158 65.7493 38.158 63.8281C38.158 62.011 37.4752 60.518 36.1211 59.3607C34.8943 58.2728 32.9962 57.7288 30.4385 57.7288H26.353V57.7172Z" fill="white"/>
<path d="M70.7721 110.308V58.8053H95.0766V66.0272C97.2061 63.1339 99.6134 60.9002 102.298 59.303C104.949 57.8795 107.888 57.1619 111.117 57.1619H112.217C112.553 57.1619 112.784 57.1966 112.911 57.2661V82.2649C111.546 81.5358 110.273 80.9571 109.081 80.5173C107.819 80.1816 106.754 80.0196 105.898 80.0196C102.715 80.0196 100.273 80.8992 98.5718 82.6584C96.7779 84.4523 95.8867 86.8596 95.8867 89.8803V110.296H70.7721V110.308Z" fill="white"/>
<path d="M178.406 84.7065C178.406 88.4911 177.596 92.1947 175.964 95.8172C174.228 99.3703 171.833 102.472 168.777 105.134C166.15 107.356 163.083 109.115 159.588 110.411C156.035 111.638 152.273 112.252 148.292 112.252C144.241 112.252 140.503 111.638 137.054 110.411C133.686 109.312 130.596 107.553 127.772 105.134C124.682 102.507 122.332 99.405 120.735 95.8172C118.999 92.3335 118.143 88.63 118.143 84.7065C118.143 80.7252 119.011 76.987 120.735 73.5034C121.499 71.7442 122.448 70.1355 123.582 68.6772C124.717 67.2189 126.105 65.7607 127.772 64.2909C130.596 61.872 133.698 60.1128 137.054 59.0133C140.503 57.7865 144.264 57.1731 148.315 57.1731C152.296 57.1731 156.058 57.7865 159.599 59.0133C163.141 60.2401 166.231 61.9993 168.893 64.2909C171.879 66.8833 174.24 69.9503 175.964 73.5034C177.596 77.1259 178.406 80.8525 178.406 84.7065ZM148.303 91.7317C150.121 91.7317 151.579 91.0836 152.667 89.7873C153.789 88.4564 154.356 86.7666 154.356 84.7065C154.356 82.577 153.824 80.8873 152.771 79.6258C151.683 78.3296 150.19 77.6814 148.303 77.6814C146.452 77.6814 144.993 78.3296 143.94 79.6258C142.783 80.9568 142.204 82.6464 142.204 84.7065C142.204 86.7666 142.783 88.4564 143.94 89.7873C144.993 91.0836 146.452 91.7317 148.303 91.7317Z" fill="white"/>
<path d="M281.608 88.6994H246.123V89.498C246.123 92.021 246.609 93.9654 247.57 95.3195C248.426 96.6158 249.861 97.2639 251.852 97.2639C253.044 97.2639 254.063 96.9166 254.884 96.2222C255.741 95.5973 256.423 94.6135 256.921 93.2826L280.057 94.8218C278.031 100.366 274.536 104.682 269.559 107.773C264.618 110.759 258.576 112.252 251.447 112.252C247.466 112.252 243.75 111.638 240.302 110.411C236.621 109.08 233.496 107.321 230.95 105.134C227.825 102.379 225.464 99.2777 223.832 95.8172C222.177 92.2294 221.344 88.5258 221.344 84.7065C221.344 80.7252 222.2 76.987 223.937 73.5034C224.7 71.7442 225.649 70.1355 226.772 68.6772C227.895 67.2189 229.295 65.7607 230.95 64.2909C233.774 61.872 236.853 60.1128 240.209 59.0133C243.658 57.7865 247.408 57.1731 251.458 57.1731C254.144 57.1731 256.771 57.4508 259.317 58.0179C261.875 58.585 264.212 59.3952 266.33 60.46C270.543 62.6243 274.177 65.8417 277.233 70.1239C278.76 72.3113 279.872 74.6955 280.566 77.2417C281.33 79.9036 281.712 82.7506 281.712 85.806V87.5536C281.712 88.1092 281.677 88.4911 281.608 88.6994ZM246.32 77.4847L257.662 77.5888C257.5 75.494 256.979 73.9894 256.123 73.052C255.197 72.0566 253.831 71.559 252.049 71.559C250.521 71.559 249.225 72.0566 248.16 73.052C247.234 74.1515 246.621 75.6329 246.32 77.4847Z" fill="white"/>
<path d="M337.971 82.8663L320.194 97.53L317.231 99.972L340.933 136.186H372.865L337.971 82.8663ZM283.795 0.231201H251.863L290.264 58.7355L307.046 35.6L283.795 0.231201Z" fill="white"/>
<path d="M389.299 0H359.984L311.143 59.3608L329.267 67.1381L272.522 129.774L266.863 136.012L273.865 130.249L354.278 64.0133L334.545 57.1965L389.299 0Z" fill="white"/>
<path d="M361.384 0H338.052L309.5 39.3385L292.718 62.4625L291.827 63.6893L294.014 64.4415L314.835 71.6403L298.678 93.3059L293.065 100.84L271.724 129.496L266.863 136.012L272.522 129.774L329.267 67.1381L311.143 59.3608L361.384 0Z" fill="#E6E7E8"/>
<path d="M74.7305 44.3616V2.46533H89.7992V30.7627H104.44V44.35H74.7305V44.3616Z" fill="white"/>
<path d="M141.452 29.6509C141.452 31.8267 140.989 33.9562 140.051 36.0279C139.056 38.0648 137.679 39.8471 135.92 41.3749C134.404 42.6479 132.656 43.6664 130.642 44.4071C128.605 45.1131 126.441 45.4719 124.149 45.4719C121.823 45.4719 119.67 45.1131 117.691 44.4071C115.759 43.7821 113.988 42.7637 112.356 41.3749C110.574 39.8703 109.231 38.088 108.317 36.0279C107.321 34.0257 106.824 31.8961 106.824 29.6509C106.824 27.3593 107.321 25.2182 108.317 23.216C108.757 22.2091 109.301 21.2832 109.949 20.4384C110.597 19.5935 111.395 18.7602 112.356 17.9153C113.976 16.5265 115.759 15.508 117.691 14.8831C119.67 14.1771 121.835 13.8298 124.161 13.8298C126.453 13.8298 128.617 14.1887 130.642 14.8831C132.679 15.5891 134.45 16.5959 135.978 17.9153C137.69 19.4083 139.045 21.1675 140.04 23.2044C140.989 25.2877 141.452 27.4403 141.452 29.6509ZM124.161 33.6901C125.203 33.6901 126.036 33.3197 126.672 32.579C127.321 31.8151 127.645 30.8429 127.645 29.6624C127.645 28.4472 127.344 27.4635 126.73 26.7459C126.105 26.0052 125.249 25.6349 124.161 25.6349C123.096 25.6349 122.263 26.0052 121.65 26.7459C120.978 27.5098 120.654 28.4819 120.654 29.6624C120.654 30.8429 120.99 31.8151 121.65 32.579C122.263 33.3081 123.096 33.6901 124.161 33.6901Z" fill="white"/>
<path d="M146.29 44.3616V0.0117188H160.537V26.0754L166.578 14.768H183.406L172.909 28.9919L183.985 44.3616H166.983L160.548 33.2857V44.3616H146.29Z" fill="white"/>
<path d="M206.669 44.3612V39.8938C205.199 41.8613 203.706 43.2733 202.178 44.1297C200.558 45.0209 198.834 45.4723 196.993 45.4723C193.579 45.4723 190.732 44.0025 188.441 41.0628C187.33 39.6739 186.496 38.0189 185.918 36.0977C185.35 34.1765 185.061 32.0817 185.061 29.8133C185.061 24.9871 186.172 21.1215 188.383 18.2281C190.559 15.2884 193.429 13.8186 196.993 13.8186C198.845 13.8186 200.5 14.2121 201.97 14.9875C203.475 15.8324 204.875 17.0592 206.148 18.6795V14.7561H219.921V44.3496H206.669V44.3612ZM198.834 29.4776C198.834 30.7739 199.192 31.7808 199.898 32.5099C200.523 33.2969 201.403 33.6788 202.537 33.6788C203.695 33.6788 204.597 33.2853 205.222 32.5099C205.894 31.7461 206.229 30.7392 206.229 29.4776C206.229 28.1814 205.894 27.1398 205.222 26.3644C204.493 25.5774 203.602 25.1954 202.537 25.1954C201.449 25.1954 200.57 25.5889 199.898 26.3644C199.181 27.1282 198.834 28.1583 198.834 29.4776Z" fill="white"/>
<path d="M226.274 44.3616V0.0117188H240.637V44.3616H226.274Z" fill="white"/>
<path d="M191.38 94.6952V59.4307H214.354V100.933C214.354 104.452 214.111 107.287 213.613 109.44C213.173 111.535 212.409 113.433 211.298 115.146C209.296 118.317 206.68 120.724 203.451 122.379C200.026 124.092 196.357 124.948 192.468 124.948C188.51 124.948 185.026 124.381 182.006 123.247C178.696 121.974 175.698 120.215 173.024 117.97L180.524 100.841C181.682 102.114 182.862 103.167 184.054 103.977C185.188 104.614 186.207 104.938 187.11 104.938C188.765 104.938 189.899 104.313 190.512 103.063C191.091 101.871 191.38 99.0816 191.38 94.6952Z" fill="white"/>
</svg>
