<svg width="199" height="19" viewBox="0 0 199 19" fill="none" xmlns="http://www.w3.org/2000/svg">
<path d="M2.47609 0.685059H20.0504L18.1057 14.4969H5.55009L5.02468 18.2654H0L2.47609 0.685059ZM6.79418 5.7097L6.25667 9.4782H13.7877L14.3251 5.7097H6.79418Z" fill="white"/>
<path d="M22.5929 0.685059H40.1672L37.6911 18.2593H32.6664L33.1918 14.4908H25.6608L25.1354 18.2593H20.1108L22.5929 0.685059ZM26.911 5.7097L26.3735 9.4782H33.9045L34.4419 5.7097H26.911Z" fill="white"/>
<path d="M46.14 11.9845L45.2583 18.2593H40.2336L42.7097 0.685059H47.7344L46.8406 6.95987H49.5643L56.7329 0.685059H60.284L59.7827 4.23615L53.8038 9.47223L58.3091 14.7082L57.8079 18.2593H54.2568L48.8577 11.9845H46.14Z" fill="white"/>
<path d="M62.8265 0.685059H80.4008L77.9247 18.2593H72.9L73.4254 14.4908H65.8945L65.369 18.2593H60.3444L62.8265 0.685059ZM67.1506 5.7097L66.6131 9.4782H74.1441L74.6816 5.7097H67.1506Z" fill="white"/>
<path d="M85.4979 18.2652H80.4733L82.9493 0.690918H87.974L85.4979 18.2652Z" fill="white"/>
<path d="M117.832 5.71L116.063 18.2657H111.038L113.514 0.691406H131.088L128.612 18.2657H123.588L125.357 5.71H124.101L122.331 18.2657H117.307L119.076 5.71H117.832Z" fill="white"/>
<path d="M133.631 0.685059H151.205L148.729 18.2593H131.155L133.631 0.685059ZM137.949 5.7097L136.88 13.2407H144.411L145.48 5.7097H137.949Z" fill="white"/>
<path d="M153.748 0.685059H158.772L157.003 13.2407H164.534L164.884 10.7284H169.909L168.852 18.2593H151.278L153.748 0.685059Z" fill="white"/>
<path d="M176.419 18.2652H171.394L173.871 0.690918H178.895L176.419 18.2652Z" fill="white"/>
<path d="M178.956 18.2654L179.656 13.2407H192.212L192.387 11.9845H179.831L181.426 0.685059H199L198.299 5.7097H185.744L185.557 6.96591H198.112L196.53 18.2654H178.956Z" fill="white"/>
<path fill-rule="evenodd" clip-rule="evenodd" d="M99.6902 18.9476C99.3943 18.9114 99.0923 18.8751 98.7964 18.8389C98.7541 18.8329 98.7058 18.8269 98.6635 18.8269C98.3857 18.7907 98.1019 18.7665 97.824 18.7242C97.6368 18.694 97.4496 18.6276 97.2624 18.5732C97.1537 18.543 97.045 18.5128 96.9363 18.4766C96.6041 18.3558 96.2659 18.241 95.9398 18.1021C95.6861 17.9934 95.4446 17.8727 95.203 17.7398C94.9192 17.5828 94.6414 17.4258 94.3756 17.2446C93.6811 16.7675 93.053 16.2058 92.5155 15.5596C92.2015 15.1852 91.9358 14.7745 91.664 14.3639C91.513 14.1344 91.3983 13.8867 91.2715 13.6391C91.1869 13.476 91.1023 13.3191 91.0238 13.156C90.9876 13.0775 90.9574 12.9929 90.9272 12.9084C90.8547 12.6849 90.7883 12.4675 90.7159 12.2441C90.6675 12.0871 90.6071 11.9361 90.5649 11.779C90.5226 11.6401 90.4984 11.4952 90.4682 11.3503C90.432 11.1691 90.3776 10.9879 90.3656 10.8067C90.3293 10.2873 90.275 9.76793 90.281 9.25459C90.287 8.80165 90.3655 8.35475 90.4199 7.90785C90.4501 7.67231 90.4924 7.43683 90.5467 7.2013C90.589 7.02616 90.6555 6.86304 90.7098 6.6879C90.746 6.57919 90.7641 6.47054 90.8064 6.36183C90.891 6.1263 90.9816 5.89679 91.0782 5.66126C91.1688 5.44384 91.2594 5.22042 91.3802 5.01509C91.5674 4.68293 91.7787 4.3568 91.9841 4.03068C92.1109 3.83139 92.2498 3.63809 92.3947 3.45691C92.5638 3.25157 92.745 3.05833 92.9383 2.87112C93.1919 2.62351 93.4395 2.36989 93.7113 2.14643C93.977 1.92298 94.273 1.72972 94.5568 1.53646C94.7501 1.4036 94.9494 1.28281 95.1547 1.16203C95.4446 0.99293 95.7405 0.835853 96.0606 0.727146C96.272 0.654674 96.4773 0.552054 96.6887 0.473544C96.8276 0.425229 96.9786 0.401034 97.1235 0.358759C97.2684 0.316484 97.4194 0.274239 97.5644 0.238003C97.6489 0.213846 97.7335 0.195743 97.818 0.177625C97.9327 0.153468 98.0475 0.11723 98.1622 0.0991118C98.4099 0.0628762 98.6575 0.0266199 98.9051 0.00246285C99.0259 -0.00961569 99.0561 0.0205689 99.0561 0.141354C99.0561 0.395004 99.05 0.642614 99.0561 0.896263C99.0561 0.992891 99.0138 1.03517 98.9172 1.04724C98.7179 1.0714 98.5125 1.08952 98.3132 1.12576C98.1019 1.16199 97.8965 1.22239 97.6912 1.27674C97.5523 1.31298 97.4134 1.3432 97.2745 1.38548C97.1175 1.43379 96.9604 1.50017 96.7974 1.55452C96.6887 1.59076 96.58 1.62099 96.4773 1.66931C96.2478 1.77801 96.0183 1.88668 95.7888 2.00747C95.6076 2.1041 95.4204 2.20073 95.2513 2.31548C94.9373 2.53289 94.6353 2.76842 94.3273 2.99187C93.8079 3.37235 93.4033 3.86758 93.0108 4.36884C92.739 4.71912 92.4853 5.08751 92.3041 5.49214C92.2317 5.64916 92.129 5.78806 92.0626 5.94508C91.9841 6.11418 91.9237 6.29535 91.8572 6.46445C91.8029 6.60939 91.7425 6.76044 91.6942 6.90538C91.658 7.00805 91.6278 7.11669 91.6036 7.21936C91.5613 7.40658 91.519 7.58778 91.4828 7.775C91.4345 8.05281 91.3922 8.32457 91.35 8.60238C91.3318 8.72316 91.3077 8.84998 91.3016 8.97076C91.2956 9.30896 91.3016 9.64115 91.3016 9.97935C91.3016 10.0458 91.3198 10.1182 91.3318 10.1847C91.3439 10.2632 91.3681 10.3356 91.3802 10.4142C91.4164 10.6738 91.4405 10.9336 91.4828 11.1872C91.519 11.3744 91.5734 11.5556 91.6338 11.7368C91.7002 11.9602 91.7727 12.1837 91.8512 12.4071C91.9176 12.5883 92.0022 12.7635 92.0807 12.9386C92.1652 13.1258 92.2558 13.313 92.3525 13.4942C92.6001 13.9532 92.902 14.3699 93.2282 14.7745C93.6147 15.2576 94.0555 15.6864 94.5447 16.0609C94.8407 16.2843 95.1608 16.4715 95.4688 16.6829C95.813 16.9185 96.1874 17.0815 96.5679 17.2325C96.7793 17.3171 96.9907 17.4076 97.2081 17.4801C97.359 17.5284 97.5281 17.5405 97.6731 17.5949C97.8603 17.6673 98.0475 17.6854 98.2408 17.7156C98.3434 17.7337 98.4401 17.7579 98.5427 17.7761C98.7239 17.8002 98.899 17.8183 99.0802 17.8364C99.2372 17.8485 99.3942 17.8606 99.5513 17.8666C99.9257 17.8726 100.294 17.8908 100.663 17.8062C100.789 17.776 100.928 17.7942 101.055 17.77C101.291 17.7277 101.52 17.6673 101.75 17.613C101.913 17.5768 102.076 17.5405 102.239 17.4982C102.372 17.462 102.498 17.4016 102.625 17.3533C102.734 17.311 102.843 17.2748 102.951 17.2265C103.193 17.1178 103.441 17.009 103.676 16.8882C103.906 16.7675 104.135 16.6467 104.34 16.5017C104.679 16.2662 105.023 16.0246 105.331 15.7529C105.663 15.463 105.965 15.1369 106.255 14.8047C106.575 14.4303 106.853 14.0256 107.094 13.5908C107.209 13.3855 107.306 13.1741 107.408 12.9627C107.499 12.7755 107.59 12.5823 107.674 12.389C107.71 12.3045 107.741 12.2138 107.765 12.1232C107.807 11.9723 107.849 11.8213 107.885 11.6703C107.934 11.4952 107.976 11.314 108.024 11.1388C108.036 11.0966 108.055 11.0543 108.061 11.012C108.097 10.7886 108.127 10.5651 108.157 10.3356C108.169 10.2571 108.206 10.2209 108.278 10.2209C108.538 10.2149 108.803 10.2088 109.063 10.2088C109.148 10.2088 109.19 10.2571 109.184 10.3296C109.172 10.4625 109.148 10.5893 109.13 10.7222C109.118 10.8369 109.111 10.9517 109.093 11.0604C109.081 11.1389 109.057 11.2174 109.039 11.2959C109.033 11.32 109.021 11.3442 109.015 11.3683C108.979 11.5556 108.948 11.7488 108.894 11.9361C108.822 12.1837 108.731 12.4252 108.646 12.6728C108.586 12.8359 108.526 13.005 108.459 13.1621C108.381 13.3432 108.308 13.5184 108.212 13.6935C108.061 13.9774 107.892 14.2491 107.728 14.5269C107.511 14.9014 107.233 15.2335 106.961 15.5717C106.551 16.079 106.068 16.5078 105.56 16.9185C105.295 17.1298 105.011 17.3231 104.721 17.5043C104.479 17.6552 104.22 17.7821 103.966 17.9089C103.743 18.0237 103.513 18.1324 103.278 18.229C103.066 18.3196 102.843 18.386 102.625 18.4585C102.335 18.5491 102.039 18.6215 101.75 18.7061C101.744 18.7061 101.738 18.7121 101.725 18.7121C101.478 18.7483 101.236 18.7846 100.989 18.8148C100.844 18.8329 100.699 18.8571 100.554 18.8752C100.439 18.8933 100.33 18.9114 100.216 18.9174C100.04 18.9235 99.8593 18.9174 99.6842 18.9174C99.6902 18.9295 99.6902 18.9416 99.6902 18.9476Z" fill="white"/>
<path fill-rule="evenodd" clip-rule="evenodd" d="M102.015 8.5726C102.462 8.5726 102.909 8.56657 103.35 8.57865C103.465 8.58469 103.586 8.62698 103.694 8.6753C103.827 8.74173 103.821 8.90479 103.694 9.05577C103.579 9.18864 103.465 9.32756 103.344 9.45439C103.175 9.6416 102.994 9.82273 102.825 10.01C102.498 10.3663 102.172 10.7286 101.84 11.091C101.351 11.6225 100.856 12.1479 100.367 12.6793C99.8291 13.2651 99.2976 13.857 98.7601 14.4428C98.283 14.9622 97.8059 15.4755 97.3228 15.9888C97.2443 16.0734 97.1658 16.1821 97.0208 16.158C96.9363 16.1459 96.9061 16.1036 96.894 16.0191C96.8638 15.856 96.9544 15.7292 97.0087 15.5903C97.0812 15.4031 97.1778 15.2279 97.2624 15.0468C97.3409 14.8777 97.4255 14.7085 97.504 14.5394C97.6006 14.328 97.6972 14.1107 97.7999 13.8993C97.8844 13.7241 97.969 13.549 98.0475 13.3739C98.126 13.2108 98.1985 13.0417 98.277 12.8786C98.3917 12.637 98.5065 12.3894 98.6212 12.1479C98.6514 12.0814 98.6816 12.009 98.7118 11.9365C98.8688 11.6044 99.0258 11.2782 99.1768 10.9461C99.2855 10.7045 99.3882 10.4569 99.4788 10.2032C99.509 10.1247 99.4849 10.0281 99.4667 9.94353C99.4486 9.85898 99.3822 9.82274 99.2976 9.7865C99.0259 9.67176 98.748 9.70202 98.4702 9.70202C97.7757 9.70202 97.0752 9.70201 96.3806 9.69597C96.3082 9.69597 96.2176 9.68988 96.1632 9.64761C96.0243 9.5389 96.0364 9.39401 96.1753 9.24907C96.9906 8.3613 97.8059 7.4735 98.6152 6.58573C98.9232 6.25357 99.2312 5.92139 99.5332 5.58319C99.9438 5.13025 100.342 4.67126 100.753 4.21831C100.989 3.95862 101.242 3.70496 101.478 3.44527C101.719 3.17954 101.943 2.9078 102.184 2.64207C102.305 2.50921 102.432 2.38843 102.559 2.26764C102.625 2.20725 102.788 2.20724 102.849 2.25555C102.909 2.3099 102.909 2.43073 102.861 2.52132C102.776 2.69042 102.704 2.87158 102.625 3.04068C102.517 3.28225 102.402 3.51775 102.293 3.75932C102.221 3.92238 102.154 4.09152 102.082 4.25458C102.003 4.42972 101.925 4.59881 101.846 4.77395C101.804 4.87662 101.756 4.97325 101.713 5.07591C101.629 5.26313 101.538 5.45031 101.454 5.64357C101.381 5.81267 101.309 5.98182 101.236 6.14488C101.17 6.3019 101.097 6.45886 101.031 6.61588C100.952 6.79102 100.874 6.9722 100.789 7.14734C100.705 7.32248 100.62 7.49762 100.542 7.67276C100.475 7.82374 100.391 7.96868 100.342 8.11966C100.282 8.32499 100.361 8.56656 100.626 8.5726C101.091 8.5726 101.556 8.56656 102.015 8.5726Z" fill="white"/>
<path fill-rule="evenodd" clip-rule="evenodd" d="M108.761 2.86512C109.486 2.86512 110.211 2.86512 110.941 2.86512C111.117 2.86512 111.147 2.88932 111.147 3.05842C111.147 3.49928 111.153 3.94012 111.129 4.38703C111.11 4.67087 110.99 4.93058 110.821 5.16611C110.748 5.26274 110.682 5.3654 110.603 5.45599C110.428 5.66132 110.205 5.80024 109.969 5.92102C109.848 5.98746 109.77 6.05993 109.788 6.22299C109.812 6.38001 109.794 6.54302 109.794 6.70608C109.794 6.79667 109.74 6.83296 109.661 6.83296C109.57 6.839 109.48 6.83296 109.383 6.83296C109.323 6.83296 109.256 6.85102 109.275 6.92349C109.281 6.95369 109.347 6.98992 109.383 6.99596C109.528 7.01408 109.631 7.20132 109.558 7.32815C109.534 7.37042 109.462 7.38854 109.407 7.40062C109.347 7.41873 109.275 7.41272 109.281 7.50331C109.287 7.58182 109.347 7.59989 109.413 7.60593C109.54 7.61801 109.564 7.66027 109.558 7.82333C109.552 7.94412 109.522 7.98036 109.401 7.98036C109.323 7.98036 109.268 8.0106 109.268 8.09515C109.268 8.17366 109.335 8.17971 109.395 8.18575C109.546 8.19783 109.558 8.20986 109.558 8.36688C109.558 8.56014 109.558 8.55412 109.365 8.61451C109.329 8.62659 109.287 8.68097 109.293 8.71116C109.293 8.74136 109.347 8.78968 109.377 8.79572C109.534 8.82592 109.619 8.98289 109.534 9.12179C109.51 9.15803 109.444 9.18822 109.395 9.18822C109.293 9.19425 109.244 9.23653 109.232 9.3392C109.226 9.42375 109.202 9.50832 109.178 9.58683C109.148 9.6895 109.069 9.75596 108.973 9.76804C108.846 9.78011 108.713 9.79219 108.592 9.76804C108.465 9.74388 108.387 9.6291 108.338 9.50831C108.326 9.48416 108.326 9.46 108.326 9.4298C108.29 9.20635 108.29 9.20633 108.067 9.18217C107.904 9.16405 107.819 9.01917 107.898 8.86819C107.916 8.83799 107.964 8.81378 108 8.80774C108.055 8.79566 108.121 8.81384 108.175 8.79572C108.212 8.78364 108.26 8.74136 108.266 8.71116C108.266 8.67493 108.23 8.62055 108.194 8.60847C108.133 8.58431 108.061 8.58429 107.994 8.58429C107.91 8.57825 107.873 8.536 107.873 8.45749C107.873 8.42125 107.873 8.38498 107.873 8.34875C107.879 8.21588 107.898 8.19783 108.03 8.18575C108.073 8.17971 108.121 8.19178 108.163 8.17366C108.193 8.16158 108.242 8.11931 108.242 8.10119C108.236 8.06496 108.2 8.0287 108.169 8.00454C108.145 7.98642 108.103 7.99849 108.073 7.99245C107.922 7.98641 107.885 7.94417 107.879 7.79923C107.879 7.64825 107.898 7.62405 108.055 7.61197C108.079 7.61197 108.109 7.60593 108.133 7.60593C108.212 7.59989 108.26 7.55764 108.26 7.47913C108.26 7.39458 108.2 7.37643 108.133 7.37643C108.121 7.37643 108.109 7.37643 108.103 7.37643C107.879 7.36436 107.825 7.29189 107.892 7.08052C107.904 7.04428 107.964 7.00804 108.012 6.99596C108.073 6.97784 108.145 6.99602 108.212 6.98394C108.242 6.9779 108.266 6.93556 108.29 6.9114C108.26 6.88724 108.236 6.84497 108.206 6.83893C108.115 6.82685 108.024 6.82692 107.928 6.83296C107.825 6.839 107.783 6.79666 107.783 6.68795C107.783 6.49469 107.777 6.3075 107.777 6.11425C107.777 5.98742 107.668 5.95122 107.596 5.92102C107.227 5.74588 106.949 5.46806 106.72 5.14798C106.617 5.00908 106.557 4.83391 106.496 4.67085C106.321 4.21187 106.442 3.72875 106.406 3.25768C106.4 3.1671 106.406 3.08251 106.406 2.99192C106.406 2.89529 106.448 2.85303 106.551 2.85303C107.288 2.86511 108.024 2.86512 108.761 2.86512ZM108.767 3.24559C108.423 3.24559 108.073 3.24559 107.728 3.24559C107.457 3.24559 107.185 3.25164 106.913 3.25164C106.847 3.25164 106.792 3.26978 106.792 3.34829C106.804 3.765 106.708 4.18771 106.883 4.59234C106.974 4.80975 107.058 5.02716 107.239 5.19022C107.348 5.29289 107.469 5.38353 107.59 5.47412C107.813 5.64322 108.079 5.73978 108.344 5.78206C108.797 5.84849 109.244 5.83037 109.673 5.63108C110.023 5.47406 110.295 5.22649 110.513 4.92453C110.573 4.83998 110.615 4.73733 110.645 4.6407C110.682 4.52596 110.694 4.40512 110.736 4.29038C110.833 4.01257 110.808 3.72871 110.802 3.44486C110.796 3.27576 110.76 3.23954 110.585 3.2335C110.555 3.2335 110.525 3.2335 110.494 3.2335C109.927 3.24558 109.347 3.24559 108.767 3.24559Z" fill="white"/>
<path fill-rule="evenodd" clip-rule="evenodd" d="M111.123 1.93534C111.123 2.12256 111.129 2.30981 111.123 2.49703C111.117 2.63593 111.092 2.6601 110.959 2.6601C109.661 2.6601 108.363 2.6601 107.07 2.6601C106.871 2.6601 106.672 2.6601 106.472 2.6601C106.358 2.6601 106.309 2.61781 106.309 2.49703C106.309 2.12259 106.309 1.74816 106.315 1.36769C106.315 1.25898 106.37 1.21066 106.478 1.20462C106.744 1.20462 107.01 1.19253 107.276 1.19253C107.384 1.19253 107.42 1.15026 107.414 1.04759C107.414 0.908686 107.427 0.775863 107.427 0.63696C107.433 0.498057 107.457 0.467843 107.596 0.467843C108.043 0.467843 108.495 0.467837 108.942 0.461797C109.226 0.461797 109.516 0.455746 109.8 0.449707C109.818 0.449707 109.836 0.449707 109.854 0.449707C110.09 0.461786 110.102 0.473897 110.102 0.709428C110.102 0.806056 110.102 0.908718 110.108 1.00535C110.114 1.16841 110.138 1.19253 110.295 1.19253C110.507 1.19253 110.718 1.19253 110.923 1.19857C111.08 1.19857 111.11 1.2288 111.11 1.38582C111.123 1.57304 111.123 1.75417 111.123 1.93534ZM108.749 2.28567C108.822 2.27963 108.894 2.27962 108.973 2.27962C109.492 2.27962 110.011 2.28567 110.531 2.28567C110.7 2.28567 110.724 2.26147 110.724 2.09237C110.724 1.99574 110.724 1.89308 110.724 1.79645C110.724 1.59716 110.712 1.58509 110.519 1.58509C109.933 1.58509 109.347 1.59114 108.761 1.59114C108.163 1.59114 107.565 1.58509 106.968 1.58509C106.738 1.58509 106.714 1.60927 106.708 1.83272C106.708 1.86896 106.708 1.8991 106.708 1.9293C106.708 2.2675 106.72 2.27962 107.058 2.27962C107.62 2.28566 108.187 2.28567 108.749 2.28567Z" fill="white"/>
</svg>
