<svg width="390" height="137" viewBox="0 0 390 137" fill="none" xmlns="http://www.w3.org/2000/svg">
<path d="M0 110.307V37.394H31.3296C42.3476 37.394 50.4028 39.5352 55.4836 43.8174C60.5991 48.007 63.1568 54.7197 63.1568 63.9901C63.1568 72.5545 60.8885 78.8158 56.3285 82.7624C51.7106 86.7784 44.4193 88.7922 34.466 88.7922H26.2488V110.307H0ZM26.353 57.7172V69.8231H30.4385C32.9962 69.8231 34.8827 69.2792 36.1211 68.1913C37.4867 67.196 38.158 65.7493 38.158 63.8281C38.158 62.011 37.4752 60.518 36.1211 59.3607C34.8943 58.2728 32.9962 57.7288 30.4385 57.7288H26.353V57.7172Z" fill="#00AEEF"/>
<path d="M70.7721 110.307V58.805H95.0765V66.027C97.2061 63.1336 99.6134 60.8999 102.298 59.3028C104.949 57.8792 107.888 57.1616 111.117 57.1616H112.217C112.553 57.1616 112.784 57.1964 112.911 57.2658V82.2646C111.546 81.5355 110.273 80.9568 109.081 80.517C107.819 80.1814 106.754 80.0194 105.898 80.0194C102.715 80.0194 100.273 80.899 98.5718 82.6582C96.7779 84.4521 95.8867 86.8594 95.8867 89.8801V110.296H70.7721V110.307Z" fill="#00AEEF"/>
<path d="M178.406 84.7063C178.406 88.4908 177.596 92.1944 175.964 95.8169C174.228 99.37 171.832 102.472 168.777 105.134C166.15 107.356 163.083 109.115 159.588 110.411C156.035 111.638 152.273 112.251 148.292 112.251C144.241 112.251 140.503 111.638 137.054 110.411C133.686 109.312 130.596 107.552 127.772 105.134C124.682 102.506 122.332 99.4047 120.735 95.8169C118.999 92.3333 118.143 88.6297 118.143 84.7063C118.143 80.725 119.011 76.9867 120.735 73.5031C121.499 71.7439 122.448 70.1352 123.582 68.677C124.717 67.2187 126.105 65.7605 127.772 64.2906C130.596 61.8717 133.698 60.1126 137.054 59.0131C140.503 57.7863 144.264 57.1729 148.315 57.1729C152.296 57.1729 156.058 57.7863 159.599 59.0131C163.141 60.2399 166.231 61.999 168.893 64.2906C171.879 66.8831 174.24 69.95 175.964 73.5031C177.596 77.1256 178.406 80.8523 178.406 84.7063ZM148.303 91.7314C150.121 91.7314 151.579 91.0833 152.667 89.7871C153.789 88.4561 154.356 86.7664 154.356 84.7063C154.356 82.5768 153.824 80.8871 152.771 79.6256C151.683 78.3293 150.19 77.6811 148.303 77.6811C146.452 77.6811 144.993 78.3293 143.94 79.6256C142.783 80.9565 142.204 82.6462 142.204 84.7063C142.204 86.7664 142.783 88.4561 143.94 89.7871C144.993 91.0833 146.452 91.7314 148.303 91.7314Z" fill="#00AEEF"/>
<path d="M281.608 88.6992H246.123V89.4978C246.123 92.0208 246.609 93.9652 247.57 95.3193C248.426 96.6155 249.861 97.2636 251.852 97.2636C253.044 97.2636 254.063 96.9164 254.884 96.222C255.741 95.597 256.423 94.6133 256.921 93.2823L280.057 94.8216C278.031 100.365 274.536 104.682 269.559 107.772C264.618 110.758 258.576 112.251 251.447 112.251C247.466 112.251 243.75 111.638 240.302 110.411C236.621 109.08 233.496 107.321 230.95 105.134C227.825 102.379 225.464 99.2774 223.832 95.8169C222.177 92.2291 221.344 88.5256 221.344 84.7063C221.344 80.725 222.2 76.9867 223.937 73.5031C224.7 71.7439 225.649 70.1352 226.772 68.677C227.895 67.2187 229.295 65.7605 230.95 64.2906C233.774 61.8717 236.853 60.1126 240.209 59.0131C243.658 57.7863 247.408 57.1729 251.458 57.1729C254.144 57.1729 256.771 57.4506 259.317 58.0177C261.875 58.5848 264.212 59.395 266.33 60.4598C270.543 62.624 274.177 65.8414 277.233 70.1237C278.76 72.3111 279.872 74.6952 280.566 77.2414C281.33 79.9033 281.712 82.7504 281.712 85.8058V87.5534C281.712 88.1089 281.677 88.4909 281.608 88.6992ZM246.32 77.4844L257.662 77.5886C257.5 75.4938 256.979 73.9892 256.123 73.0517C255.197 72.0564 253.831 71.5588 252.049 71.5588C250.521 71.5588 249.225 72.0564 248.16 73.0517C247.234 74.1512 246.621 75.6326 246.32 77.4844Z" fill="#00AEEF"/>
<path d="M337.971 82.8666L320.194 97.5302L317.231 99.9722L340.934 136.186H372.865L337.971 82.8666ZM283.795 0.231445H251.863L290.264 58.7357L307.046 35.6002L283.795 0.231445Z" fill="url(#paint0_linear_55_1541)"/>
<path d="M389.299 0H359.983L311.143 59.3608L329.267 67.1381L272.522 129.774L266.863 136.012L273.865 130.249L354.278 64.0133L334.545 57.1965L389.299 0Z" fill="#FDD011"/>
<path d="M361.384 0H338.052L309.5 39.3385L292.718 62.4625L291.827 63.6893L294.014 64.4415L314.835 71.6403L298.678 93.3059L293.065 100.84L271.724 129.496L266.863 136.012L272.522 129.774L329.267 67.1381L311.143 59.3608L361.384 0Z" fill="#E1AC25"/>
<path d="M74.7305 44.3616V2.46533H89.7992V30.7627H104.44V44.35H74.7305V44.3616Z" fill="#00AEEF"/>
<path d="M141.452 29.6511C141.452 31.8269 140.989 33.9565 140.051 36.0281C139.056 38.0651 137.679 39.8474 135.92 41.3751C134.404 42.6482 132.656 43.6667 130.642 44.4074C128.605 45.1133 126.441 45.4722 124.149 45.4722C121.823 45.4722 119.67 45.1133 117.691 44.4074C115.759 43.7824 113.988 42.7639 112.356 41.3751C110.574 39.8705 109.231 38.0882 108.317 36.0281C107.321 34.0259 106.824 31.8964 106.824 29.6511C106.824 27.3595 107.321 25.2184 108.317 23.2162C108.757 22.2093 109.301 21.2835 109.949 20.4386C110.597 19.5937 111.395 18.7604 112.356 17.9156C113.976 16.5267 115.759 15.5083 117.691 14.8833C119.67 14.1773 121.835 13.8301 124.161 13.8301C126.453 13.8301 128.617 14.1889 130.642 14.8833C132.679 15.5893 134.45 16.5962 135.978 17.9156C137.69 19.4086 139.045 21.1677 140.04 23.2047C140.989 25.2879 141.452 27.4405 141.452 29.6511ZM124.161 33.6903C125.203 33.6903 126.036 33.3199 126.672 32.5792C127.321 31.8154 127.645 30.8432 127.645 29.6627C127.645 28.4475 127.344 27.4638 126.73 26.7462C126.105 26.0055 125.249 25.6351 124.161 25.6351C123.096 25.6351 122.263 26.0055 121.65 26.7462C120.978 27.51 120.654 28.4822 120.654 29.6627C120.654 30.8432 120.99 31.8154 121.65 32.5792C122.263 33.3084 123.096 33.6903 124.161 33.6903Z" fill="#00AEEF"/>
<path d="M146.29 44.3616V0.0117188H160.537V26.0754L166.578 14.768H183.406L172.909 28.9919L183.985 44.3616H166.983L160.548 33.2857V44.3616H146.29Z" fill="#00AEEF"/>
<path d="M206.669 44.3614V39.8941C205.199 41.8616 203.706 43.2735 202.178 44.13C200.558 45.0211 198.834 45.4725 196.993 45.4725C193.579 45.4725 190.732 44.0027 188.441 41.063C187.33 39.6742 186.496 38.0191 185.918 36.0979C185.35 34.1767 185.061 32.0819 185.061 29.8135C185.061 24.9873 186.172 21.1218 188.383 18.2284C190.559 15.2887 193.429 13.8188 196.993 13.8188C198.845 13.8188 200.5 14.2124 201.97 14.9878C203.475 15.8327 204.875 17.0595 206.148 18.6798V14.7563H219.921V44.3499H206.669V44.3614ZM198.834 29.4779C198.834 30.7741 199.192 31.781 199.898 32.5102C200.523 33.2972 201.403 33.6791 202.537 33.6791C203.695 33.6791 204.597 33.2856 205.222 32.5102C205.894 31.7463 206.229 30.7394 206.229 29.4779C206.229 28.1817 205.894 27.14 205.222 26.3646C204.493 25.5776 203.602 25.1957 202.537 25.1957C201.449 25.1957 200.57 25.5892 199.898 26.3646C199.181 27.1285 198.834 28.1585 198.834 29.4779Z" fill="#00AEEF"/>
<path d="M226.274 44.3616V0.0117188H240.637V44.3616H226.274Z" fill="#00AEEF"/>
<path d="M191.38 94.6952V59.4307H214.354V100.933C214.354 104.452 214.111 107.287 213.613 109.44C213.173 111.535 212.409 113.433 211.298 115.146C209.296 118.317 206.68 120.724 203.451 122.379C200.026 124.092 196.357 124.948 192.468 124.948C188.51 124.948 185.026 124.381 182.006 123.247C178.696 121.974 175.698 120.215 173.024 117.97L180.524 100.841C181.682 102.114 182.862 103.167 184.054 103.977C185.188 104.614 186.207 104.938 187.11 104.938C188.765 104.938 189.899 104.313 190.512 103.063C191.091 101.871 191.38 99.0816 191.38 94.6952Z" fill="#00AEEF"/>
<defs>
<linearGradient id="paint0_linear_55_1541" x1="251.858" y1="68.2039" x2="372.869" y2="68.2039" gradientUnits="userSpaceOnUse">
<stop stop-color="#459F46"/>
<stop offset="0.1473" stop-color="#56A743"/>
<stop offset="0.7221" stop-color="#96C53A"/>
<stop offset="0.9939" stop-color="#AFD136"/>
</linearGradient>
</defs>
</svg>
